<?xml version="1.0" encoding="utf-8"?>
<!-- Generator: Adobe Illustrator 16.0.0, SVG Export Plug-In . SVG Version: 6.00 Build 0)  -->
<!DOCTYPE svg PUBLIC "-//W3C//DTD SVG 1.1//EN" "http://www.w3.org/Graphics/SVG/1.1/DTD/svg11.dtd">
<svg version="1.1" id="Layer_1" xmlns="http://www.w3.org/2000/svg" xmlns:xlink="http://www.w3.org/1999/xlink" x="0px" y="0px"
	 width="300px" height="300px" viewBox="0 0 300 300" enable-background="new 0 0 300 300" xml:space="preserve">
<g id="EPveo6.tif">
	<g>
		<path fill-rule="evenodd" clip-rule="evenodd" fill="#FFFFFF" d="M42.976,203.674c-1.139-0.654-2.288-1.236-3.358-1.938
			c-3.576-2.348-3.912-6.598-2.308-9.83c0.948-1.91,2.161-3.689,3.156-5.578c1.107-2.105,0.982-2.602-0.758-4.297
			c-2.192-2.137-4.903-3.473-7.581-4.855c-2.783-1.436-5.445-3.023-7.57-5.4c-4.424-4.947-4.672-10.781-0.318-15.834
			c2-2.318,4.399-4.312,6.736-6.317c5.125-4.396,9.159-9.684,12.749-15.341c2.538-4,4.863-8.112,6.119-12.737
			c0.734-2.709,0.687-5.455,0.443-8.208c-0.393-4.457-0.882-8.892-0.566-13.395c0.43-6.118,1.388-12.132,3.583-17.849
			c2.54-6.611,5.287-13.148,8.152-19.626c1.965-4.441,5.091-8.125,8.532-11.528c5.907-5.841,12.164-11.241,19.185-15.739
			c9.65-6.181,20.06-10.579,31.101-13.53c7.572-2.023,15.125-4.126,22.757-5.893c3.89-0.901,7.92-1.306,11.911-1.644
			c8.148-0.688,16.284-0.262,24.374,0.862c9.349,1.299,18.479,3.529,27.392,6.658c6.909,2.425,13.609,5.312,20.078,8.735
			c7.559,3.999,14.702,8.618,21.488,13.842c5.881,4.527,11.368,9.431,16.324,14.945c8.762,9.748,14.596,20.994,17.519,33.786
			c2.256,9.873,3.403,19.85,3.166,29.975c-0.128,5.493-0.769,10.936-1.687,16.353c-1.265,7.462-3.293,14.67-6.918,21.352
			c-2.989,5.514-6.868,10.41-10.826,15.24c-6.373,7.775-12.522,15.721-17.49,24.486c-2.258,3.98-4.211,8.141-6.193,12.27
			c-2.805,5.846-3.005,11.775-0.813,17.943c3.928,11.057,7.514,22.234,11.461,33.281c1.804,5.049,4.138,9.906,6.208,14.861
			c0.355,0.85,0.74,1.732,0.839,2.629c0.161,1.479-0.856,2.717-2.289,3.092c-1.466,0.385-3.028-0.246-3.628-1.609
			c-2.194-4.979-4.507-9.918-6.462-14.994c-2.264-5.877-4.228-11.869-6.264-17.832c-1.951-5.719-3.689-11.514-5.772-17.184
			c-2.905-7.908-2.418-15.486,1.001-23.166c4.243-9.529,9.578-18.369,15.822-26.674c4.139-5.506,8.452-10.881,12.771-16.248
			c6.04-7.508,9.745-16.038,11.664-25.444c1.419-6.949,2.211-13.946,2.241-21.03c0.032-7.335-0.689-14.596-2.178-21.789
			c-1.237-5.979-2.799-11.851-5.306-17.431c-3.482-7.754-8.551-14.407-14.443-20.463c-3.955-4.066-8.178-7.831-12.665-11.314
			c-16.181-12.56-34.309-21.014-54.184-25.792c-9.312-2.238-18.763-3.404-28.347-3.32c-8.21,0.073-16.269,1.169-24.177,3.478
			c-7.04,2.055-14.203,3.695-21.217,5.83c-9.694,2.952-18.715,7.384-26.968,13.302c-6.2,4.446-11.918,9.453-17.176,14.98
			c-3.317,3.488-5.5,7.693-7.261,12.102c-2.389,5.98-4.889,11.939-6.831,18.07c-2.045,6.463-2.58,13.188-1.998,19.997
			c0.329,3.855,0.522,7.744,0.412,11.608c-0.096,3.312-1.34,6.428-2.661,9.462c-2.394,5.502-5.953,10.267-9.394,15.131
			c-3.822,5.403-8.721,9.681-13.625,13.996c-0.853,0.75-1.616,1.641-2.268,2.572c-1.842,2.639-1.645,5.096,0.842,7.133
			c1.871,1.531,3.99,2.781,6.086,4.008c3.062,1.793,6.305,3.334,8.786,5.941c1.122,1.18,2.113,2.543,2.89,3.973
			c0.786,1.449,0.567,3.146-0.027,4.605c-0.845,2.074-1.972,4.037-2.995,6.039c-0.407,0.797-0.871,1.564-1.291,2.355
			c-0.428,0.805-0.224,1.508,0.533,1.938c0.834,0.471,1.712,0.898,2.619,1.199c1.899,0.635,3.842,1.133,5.742,1.762
			c1.611,0.535,2.252,1.557,2.145,3.174c-0.102,1.533-0.95,2.336-2.419,2.908c-1.344,0.521-2.623,1.287-3.806,2.121
			c-0.938,0.662-0.881,2.004-0.013,2.812c0.785,0.732,1.618,1.418,2.468,2.074c4.08,3.156,5.54,7.49,4.991,12.381
			c-0.457,4.068-1.519,8.07-2.323,12.1c-0.565,2.834-0.846,5.662-0.039,8.506c0.962,3.396,3.433,5.271,6.547,6.445
			c4.244,1.602,8.691,1.725,13.147,1.613c7.297-0.186,14.462-1.494,21.659-2.557c4.318-0.639,8.671-1.049,13.007-1.568
			c5.115-0.611,10.222-0.674,15.328,0.148c1.303,0.209,2.325,0.711,3.232,1.691c3.666,3.957,5.795,8.697,6.946,13.871
			c1.265,5.695,2.27,11.447,3.489,17.154c0.378,1.775,1.032,3.498,1.655,5.209c0.654,1.799,0.091,3.479-1.551,4.26
			c-1.617,0.77-3.519,0.186-4.167-1.643c-1.094-3.094-2.063-6.252-2.789-9.451c-1.146-5.057-1.944-10.193-3.088-15.254
			c-0.74-3.273-2.188-6.297-4.418-8.863c-0.38-0.436-1.029-0.793-1.601-0.883c-4.98-0.764-9.95-0.357-14.901,0.314
			c-7.271,0.986-14.531,2.068-21.804,3.045c-6.125,0.824-12.271,1.369-18.45,0.689c-3.795-0.416-7.493-1.248-10.851-3.164
			c-5.121-2.918-7.746-7.391-8.077-13.238c-0.247-4.352,0.732-8.539,1.778-12.711c0.655-2.611,1.32-5.217,1.01-7.951
			c-0.249-2.199-1.104-4.004-2.926-5.402c-1.38-1.061-2.76-2.229-3.801-3.604c-2.239-2.959-2.039-6.629,0.254-9.561
			C42.654,204.08,42.831,203.857,42.976,203.674z"/>
		<path fill-rule="evenodd" clip-rule="evenodd" fill="#FFFFFF" d="M221.906,41.266c0.566-1.662,0.666-1.763,2.302-1.515
			c2.877,0.436,5.362,1.785,7.604,3.556c3.579,2.826,6.899,5.915,9.76,9.502c1.619,2.03,3.386,3.95,5.694,5.317
			c1.637,0.968,3.153,2.178,3.375,4.332c0.017,0.162,0.22,0.379,0.384,0.438c3.149,1.133,5.019,3.639,6.605,6.349
			c2.1,3.586,4.089,7.239,6.035,10.912c1.224,2.312,2.041,4.749,1.209,7.431c-0.062,0.197,0,0.524,0.134,0.676
			c2.331,2.625,2.679,5.589,1.507,8.858c2.884,1.083,4.274,3.396,5.024,6.157c1.425,5.245,1.768,10.599,1.237,15.991
			c-0.097,0.977-0.769,1.89-1.13,2.849c-0.172,0.459-0.397,0.982-0.329,1.436c0.713,4.753,0.965,9.541-0.116,14.226
			c-0.507,2.199-0.408,4.429-0.961,6.595c-1.103,4.321-2.354,8.575-4.914,12.301c-0.582,0.846-1.388,1.539-2.052,2.334
			c-1.023,1.229-2.039,2.463-3.006,3.734c-0.648,0.852-1.115,1.855-1.827,2.645c-1.752,1.941-3.975,2.426-6.471,1.785
			c-0.448-0.115-0.889-0.258-1.419-0.412c-0.282,0.787-0.523,1.557-0.832,2.299c-1.92,4.615-4.714,8.66-8.064,12.342
			c-0.959,1.057-1.895,2.133-2.843,3.199c-6.741,7.588-15.171,12.127-25.166,13.662c-6.822,1.049-13.607,0.797-20.138-1.713
			c-2.091-0.801-4.062-1.916-6.132-2.908c-0.167,1.592-0.39,3.277-0.508,4.969c-0.441,6.244,0.435,12.32,2.782,18.113
			c0.766,1.885,2.082,3.57,3.292,5.24c0.844,1.168,0.992,1.801,0.107,2.596c-0.778,0.697-1.555,0.574-2.5-0.43
			c-3.021-3.211-4.588-7.148-5.536-11.355c-0.962-4.271-1.771-8.57-1.414-12.992c0.218-2.68,0.396-5.361,0.606-8.041
			c0.055-0.684-0.139-1.193-0.636-1.713c-0.696-0.73-1.586-1.396-1.518-2.611c0.01-0.191-0.259-0.402-0.411-0.594
			c-2.864-3.572-5.472-7.293-6.494-11.859c-0.335-1.492-0.451-3.031-0.669-4.572c-5.895,0.893-11.792,1.787-17.712,2.684
			c-0.543,2.607,0.645,4.676,2.354,6.523c1.607,1.74,3.283,3.416,4.931,5.119c4.01,4.145,6.383,9.111,7.929,14.652
			c2.532,9.078,6.724,17.359,13.042,24.447c1.524,1.709,3.25,3.242,4.907,4.83c0.878,0.844,1.048,1.598,0.424,2.301
			c-0.665,0.75-1.716,0.781-2.578,0.049c-4.951-4.199-8.936-9.191-12.166-14.809c-3.308-5.75-5.718-11.863-7.403-18.264
			c-1.021-3.875-2.968-7.201-5.67-10.111c-1.782-1.92-3.642-3.77-5.4-5.707c-1.982-2.186-3.634-4.551-3.576-7.701
			c0.018-0.82-0.656-0.584-1.102-0.648c-2.972-0.43-5.987-0.664-8.912-1.307c-6.072-1.334-9.885-5.197-11.689-11.104
			c-0.177-0.582-0.489-1.15-0.526-1.74c-0.119-1.842-1.194-2.723-2.833-3.252c-0.979-0.314-1.895-0.844-2.816-1.318
			c-4.082-2.107-5.993-5.592-6.305-10.057c-0.065-0.923-0.009-1.855-0.009-2.951c-2.853,0.37-5.471-0.184-7.953-1.521
			c-1.873,2.298-4.292,3.462-7.132,3.579c-1.406,0.059-2.912-0.035-4.226-0.486c-1.941-0.667-3.825-0.846-5.799-0.427
			c-4.118,0.873-8.16,0.224-12.099-0.89c-2.457-0.694-4.885-1.68-7.125-2.903c-2.971-1.622-4.884-4.168-5.151-7.709
			c-0.018-0.233-0.08-0.539-0.238-0.675c-2.451-2.113-4.035-4.837-5.339-7.721c-1.179-2.608-2.281-5.259-3.252-7.951
			c-1.233-3.419-1.297-6.994-0.644-10.517c0.774-4.18,1.724-8.333,2.763-12.457c0.518-2.053,1.563-3.908,3.15-5.414
			c0.237-0.225,0.261-0.771,0.238-1.16c-0.173-2.951,0.233-5.785,1.542-8.467c0.819-1.68,1.895-3.192,3.518-4.108
			c1.19-0.672,1.883-1.592,2.34-2.791c0.909-2.375,1.593-4.863,2.758-7.104c3.26-6.276,7.207-12.08,12.772-16.59
			c0.989-0.802,2.149-1.438,3.312-1.97c2.126-0.974,4.282-1.164,6.334,0.363c3.672-5.369,8.876-8.603,14.773-10.846
			c2.495-0.949,5.076-1.536,7.792-1.009c0.318,0.062,0.83-0.066,1.021-0.297c2.238-2.701,5.223-4.132,8.531-4.869
			c5.237-1.167,10.5-2.225,15.771-3.231c2.999-0.573,5.929-0.037,8.757,1.031c0.52,0.196,0.857,0.068,1.355-0.117
			c1.432-0.533,2.91-1.07,4.412-1.249c3.068-0.367,6.1-0.222,8.751,1.736c0.232,0.172,0.714,0.153,1.022,0.052
			c3.652-1.199,7.335-1.971,11.176-0.976c0.343,0.09,0.727,0.156,1.005,0.354c1.95,1.389,4.283,1.12,6.452,1.583
			c2.646,0.566,5.267,1.315,7.841,2.161c1.049,0.345,1.947,1.15,3.015,1.808c0.734-0.823,1.657-0.61,2.69-0.146
			c2.743,1.232,5.55,2.324,8.284,3.576C215.444,36.349,218.986,38.233,221.906,41.266z M77.043,71.762
			c1.672,0.56,2.224,1.463,1.349,2.492c-0.386,0.453-1.23,0.784-1.834,0.738c-2.21-0.164-3.825,0.688-5.008,2.49
			c-1.049,1.595-1.632,3.384-1.676,5.259c-0.041,1.775,0.178,3.563,0.372,5.335c0.14,1.262-0.296,2.132-1.393,2.026
			c-1.05-0.102-1.492,0.362-1.835,1.178c-0.278,0.658-0.681,1.284-0.839,1.967c-0.917,3.974-1.833,7.949-2.641,11.947
			c-0.652,3.222-0.491,6.453,0.694,9.533c1.143,2.972,2.379,5.917,3.762,8.783c0.707,1.465,1.78,2.764,2.771,4.076
			c0.698,0.924,1.169,0.809,1.763-0.132c0.647-1.025,1.297-2.075,2.115-2.959c1.852-2.002,4.194-2.945,6.942-2.776
			c0.82,0.05,1.239,0.51,1.183,1.346c-0.055,0.821-0.549,1.059-1.318,1.039c-2.67-0.071-4.733,1.095-6.12,3.322
			c-0.73,1.174-1.219,2.499-1.796,3.765c-0.491,1.079-0.34,2.109,0.376,3.035c0.457,0.591,0.923,1.199,1.483,1.684
			c1.742,1.509,3.836,2.358,6.024,2.965c4.455,1.239,8.933,2.065,13.569,0.939c1.653-0.402,3.344-0.349,4.959,0.357
			c0.49,0.214,1.011,0.365,1.526,0.514c2.897,0.839,5.702-0.056,7.577-2.405c1.012-1.269,2.204-1.504,3.634-0.73
			c1.899,1.028,3.888,1.693,6.077,1.279c0.291-0.055,0.691-0.463,0.731-0.752c0.176-1.253,0.6-1.808,1.546-1.782
			c1.062,0.029,1.597,0.675,1.598,1.962c0.001,2.369-0.092,4.742,0.008,7.106c0.099,2.314,0.91,4.486,2.891,5.754
			c2.091,1.34,4.39,2.398,6.698,3.332c0.946,0.385,1.377,0.824,1.592,1.738c0.401,1.705,0.78,3.426,1.339,5.08
			c1.131,3.35,3.237,5.826,6.589,7.227c2.483,1.039,5.063,1.533,7.703,1.809c1.924,0.201,3.898,0.609,5.783,0.381
			c6.148-0.746,12.269-1.732,18.396-2.646c1.623-0.244,2.226-1.119,2.285-2.748c0.015-0.41,0.569-0.914,0.998-1.164
			c0.572-0.338,1.295-0.408,1.899-0.703c1.98-0.965,2.352-2.293,1.248-4.195c-1.193-2.059-2.904-3.629-4.744-5.078
			c-0.516-0.406-0.764-0.912-0.304-1.48c0.429-0.529,1.03-0.926,1.677-0.438c2.447,1.85,4.789,3.822,5.988,6.764
			c1.04,2.553,0.273,4.748-2.089,6.189c-0.557,0.338-1.146,0.625-1.72,0.936c1.586,0.09,3.128,0.051,4.656-0.113
			c4.083-0.443,7.801-1.746,10.908-4.576c1.034-0.941,2.158-1.842,3.612-2.154c0.411-0.088,0.799-0.312,1.178-0.514
			c3.344-1.764,5.316-4.617,6.352-8.165c1.956-6.696-0.05-11.877-5.94-15.621c-0.302-0.191-0.509-0.845-0.446-1.231
			c0.123-0.757,0.966-1.047,1.811-0.694c2.618,1.096,4.577,2.95,5.864,5.45c2.38,4.626,2.267,9.395,0.485,14.161
			c-1.394,3.721-3.729,6.682-7.408,8.422c-0.499,0.236-1.013,0.438-1.628,0.701c2.621,0.857,4.743,0.754,7.729-0.721
			c3.468-1.711,6.843-3.611,10.246-5.451c0.785-0.426,1.579-0.873,2.265-1.436c1.912-1.57,3.447-3.131,2.857-6.128
			c-0.75-3.822,2.002-7.75,5.507-8.459c0.934-0.189,1.257-0.557,1.565-1.386c1.778-4.785,5.149-8.2,9.484-10.747
			c0.694-0.407,1.244-0.207,1.646,0.435c0.391,0.626,0.24,1.165-0.367,1.573c-0.298,0.201-0.605,0.385-0.905,0.581
			c-3.923,2.542-6.887,5.824-8.033,10.486c-0.215,0.871-0.739,1.24-1.606,1.28c-0.53,0.024-1.08,0.074-1.581,0.238
			c-2.748,0.903-4.027,3.798-3.112,6.968c0.71,2.462,2.592,4.009,5.139,4.294c0.354,0.041,0.805,0.246,0.999,0.523
			c1.005,1.43,2.488,2.09,4.075,2.408c3.914,0.785,7.453,2.5,10.981,4.246c2.182,1.078,4.279,2.33,6.491,3.336
			c1.978,0.902,3.39,0.611,4.581-0.801c0.746-0.883,1.316-1.914,1.887-2.76c-1.111-0.832-2.138-1.492-3.033-2.297
			c-0.817-0.736-0.616-1.877,0.32-2.465c0.713-0.445,1.336-0.291,1.946,0.262c1.946,1.76,3.49,2.223,5.388-0.838
			c1.416-2.283,2.309-4.902,3.327-7.415c0.47-1.162,0.682-2.429,1.002-3.617c-0.749-0.173-1.324-0.253-1.858-0.443
			c-0.943-0.335-1.364-1.218-1.046-2.172c0.307-0.924,0.983-1.093,1.89-0.934c0.307,0.053,0.77-0.172,0.993-0.42
			c0.272-0.302,0.405-0.753,0.534-1.159c1.047-3.304,0.952-6.728,1.009-10.128c0.02-1.26-0.194-2.524-0.308-3.859
			c-1.155,0.452-2.115,0.842-3.086,1.201c-1.028,0.38-1.778,0.135-2.08-0.648c-0.349-0.903-0.01-1.828,0.891-2.238
			c0.879-0.399,1.788-0.729,2.686-1.085c2.067-0.822,3.108-2.319,3.034-4.569c-0.082-2.474,0.04-4.974-0.275-7.417
			c-0.318-2.464-0.985-4.895-1.658-7.297c-0.347-1.231-1.211-2.222-2.541-2.56c-0.297-0.076-0.877,0.127-1.003,0.37
			c-0.472,0.908-0.87,1.867-1.179,2.845c-0.343,1.091-1.107,1.492-2.125,0.981c-0.843-0.423-1.28-1.395-0.791-2.507
			c0.656-1.495,1.573-2.874,2.344-4.321c0.469-0.878,1.126-1.759,1.241-2.694c0.133-1.078-0.101-2.263-0.449-3.312
			c-0.166-0.501-0.937-0.839-1.483-1.167c-0.829-0.497-1.242-1.509-0.686-2.418c1.174-1.915,0.941-3.8-0.032-5.622
			c-2.279-4.267-4.597-8.516-7.002-12.711c-0.836-1.458-1.983-2.74-3.635-3.393c-0.247-0.097-0.536-0.164-0.794-0.137
			c-0.748,0.076-1.493,0.194-2.236,0.317c-1.082,0.178-2.255,0.165-3.226,0.599c-3.456,1.544-4.99,4.514-5.354,8.102
			c-0.186,1.832-1.286,2.701-2.72,3.405c-0.645,0.317-1.241,0.147-1.569-0.469c-0.336-0.634-0.271-1.268,0.478-1.627
			c1.033-0.495,1.597-1.259,1.551-2.449c-0.014-0.347,0.121-0.704,0.212-1.049c1.205-4.602,4.788-8.605,9.462-8.917
			c1.07-0.072,1.528-1.245,0.786-2.046c-0.571-0.62-1.372-1.02-2.02-1.576c-1.406-1.206-2.975-2.291-4.129-3.708
			c-3.327-4.086-7.082-7.707-11.211-10.951c-1.87-1.469-3.924-2.603-6.452-2.949c0.185,0.314,0.3,0.532,0.436,0.736
			c1.432,2.16,2.27,4.542,2.545,7.107c0.137,1.276-0.586,1.889-1.822,1.661c-0.93-0.172-1.22-0.855-1.389-1.689
			c-0.213-1.047-0.403-2.119-0.787-3.11c-1.342-3.484-3.913-5.973-7.126-7.613c-4.009-2.045-8.204-3.724-12.321-5.554
			c-0.067-0.03-0.171,0.023-0.062,0.005c0.488,2.415,1.164,4.771,1.388,7.169c0.171,1.851-0.135,3.77-0.407,5.631
			c-0.144,0.98-1.042,1.35-2.001,1.1c-0.876-0.228-1.325-0.843-1.083-1.688c0.898-3.139,0.283-6.175-0.458-9.224
			c-0.71-2.924-2.346-4.963-5.362-5.684c-1.949-0.466-3.906-0.896-5.87-1.292c-0.272-0.056-0.702,0.085-0.889,0.291
			c-1.121,1.226-2.101,1.245-3.091-0.052c-1.062-1.391-2.485-2.202-4.172-2.408c-3.349-0.409-6.52,0.333-9.597,1.662
			c-0.487,0.21-1.396,0.171-1.749-0.149c-2.646-2.42-5.652-2.544-9.008-1.671c1.151,0.809,2.229,1.509,3.24,2.297
			c0.643,0.502,1.312,1.053,1.747,1.725c1.628,2.513,1.06,5.263,0.56,7.93c-0.171,0.912-1.188,1.079-2.065,0.863
			c-0.817-0.203-0.979-0.863-0.901-1.601c0.076-0.713,0.169-1.424,0.281-2.132c0.323-2.037-0.163-3.649-2.152-4.666
			c-1.432-0.732-2.755-1.677-4.162-2.461c-2.48-1.382-5.096-2.348-7.998-2.036c-6.351,0.683-12.578,2.028-18.722,3.737
			c-1.966,0.548-3.747,1.553-4.992,3.268c0.3,0.401,0.598,0.721,0.805,1.09c0.459,0.822,0.208,1.56-0.479,2.093
			c-0.585,0.454-1.283,0.551-1.848-0.068c-1.808-1.981-4.13-2.211-6.438-1.507c-6.371,1.941-12.048,4.991-15.695,10.891
			c-0.246,0.395-0.425,0.964-0.345,1.401c0.272,1.497-0.03,2.307-1.134,2.574c-1.068,0.259-1.579-0.2-1.992-1.792
			c-0.008-0.034-0.028-0.066-0.037-0.101c-0.587-2.309-1.76-2.961-3.859-1.883c-1.483,0.761-2.993,1.643-4.17,2.797
			C83.964,56.424,79.199,63.307,77.043,71.762z M177.24,168.713c-0.735,3.723,0.229,7.133,1.91,10.363
			c1.716,3.305,4.146,6.088,6.714,8.764c3.008,3.131,6.608,5.244,10.769,6.393c4.682,1.293,9.447,1.521,14.281,1.105
			c6.227-0.535,11.96-2.455,17.218-5.809c4.148-2.646,7.635-6.016,10.833-9.738c2.364-2.752,4.593-5.576,6.317-8.771
			c0.98-1.814,1.853-3.682,2.235-5.74c-4.697-2.523-9.297-4.986-14.452-6.197c-2.037-0.48-3.954-1.312-5.264-3.1
			c-0.083-0.113-0.182-0.227-0.298-0.299c-1.496-0.92-2.997-1.832-4.372-2.67c-1.031,0.971-2.068,2.193-3.339,3.084
			c-1.724,1.207-3.601,2.209-5.459,3.211c-2.801,1.512-5.573,3.104-8.485,4.369c-3.05,1.326-6.231,1.572-9.359-0.033
			c-0.29-0.148-0.903,0-1.187,0.23c-3.364,2.734-7.271,4.072-11.517,4.488C181.652,168.574,179.501,168.598,177.24,168.713z"/>
		<path fill-rule="evenodd" clip-rule="evenodd" fill="#FFFFFF" d="M216.797,79.645c-3.324-0.012-6.233-0.884-8.819-2.73
			c-2.26-1.613-3.822-3.749-4.619-6.421c-0.071-0.238-0.126-0.483-0.166-0.729c-0.131-0.801,0.174-1.354,0.992-1.501
			c0.805-0.147,1.185,0.341,1.35,1.051c0.452,1.95,1.488,3.537,2.934,4.903c4.384,4.146,12.058,4.046,16.343-0.204
			c0.36-0.358,0.97-0.74,1.41-0.685c0.98,0.123,1.235,1.285,0.51,2.097c-1.697,1.9-3.824,3.104-6.276,3.748
			c-0.518,0.136-1.043,0.248-1.539,0.366c0.597,3.612,0.475,7.053-2.232,9.83c-2.642,2.712-6.141,2.97-9.637,3.002
			c-1.251,6.944-10.521,10.839-16.052,8.601c-0.251-0.102-0.71-0.051-0.902,0.121c-3.488,3.111-7.334,3.614-11.545,1.666
			c-0.095-0.043-0.203-0.059-0.307-0.083c-0.032-0.006-0.068,0.007-0.156,0.018c-2.12,4.497-6.255,5.819-10.705,6.401
			c-5.507,0.718-11.086,1.093-16.273,3.252c-2.594,1.08-5.045,2.516-7.513,3.878c-0.876,0.484-1.437,0.512-1.899-0.444
			c-0.096-0.201-0.315-0.358-0.508-0.494c-1.083-0.761-2.253-1.422-3.251-2.281c-2.263-1.946-4.863-2.839-7.81-2.792
			c-3.667,0.058-6.192-1.885-8.271-4.645c-1.25-1.659-2.45-3.36-3.786-4.948c-1.564-1.862-3.737-2.284-6.042-2.16
			c-1.284,0.069-2.565,0.218-3.844,0.363c-0.919,0.104-1.422-0.359-1.412-1.192c0.011-0.78,0.532-1.133,1.376-1.148
			c1.027-0.019,2.055-0.187,3.076-0.333c4.372-0.621,7.654,1.021,10.11,4.648c1.199,1.771,2.582,3.429,3.984,5.049
			c1.151,1.331,2.701,1.951,4.479,2.018c1.253,0.047,2.516,0.101,3.755,0.284c2.121,0.313,3.86,1.429,5.508,2.75
			c1.058,0.846,2.191,1.612,3.366,2.28c0.364,0.207,1.065,0.137,1.464-0.08c6.253-3.396,12.876-5.461,20.003-5.97
			c3.061-0.218,6.203-0.421,8.899-2.129c0.996-0.632,1.814-1.592,2.591-2.506c0.63-0.741,0.863-1.563-0.08-2.401
			c-0.627-0.558-0.515-1.322,0.123-1.885c0.589-0.52,1.052-0.187,1.583,0.244c1.605,1.304,3.073,2.803,5.355,3.01
			c2.554,0.231,4.669-0.481,6.359-2.393c1.165-1.319,1.139-1.325,2.666-0.588c1.684,0.812,3.454,0.887,5.248,0.491
			c2.432-0.536,4.604-1.569,6.28-3.475c0.998-1.134,1.615-2.423,1.699-3.972c0.076-1.406,0.372-1.538,1.833-1.601
			c1.816-0.078,3.673-0.095,5.432-0.494c3.104-0.707,4.875-3.161,4.914-6.365C216.81,81.96,216.797,80.854,216.797,79.645z"/>
		<path fill-rule="evenodd" clip-rule="evenodd" fill="#FFFFFF" d="M116.895,72.912c2.245-2.175,5.245-3.223,8.507-3.562
			c3.185-0.332,6.202,0.339,9.025,1.862c0.713,0.385,1.184,0.884,0.734,1.722c-0.469,0.876-1.161,0.764-1.925,0.372
			c-5.094-2.613-9.937-2.044-14.704,1.194c2.387,2.288,3.903,4.981,4.474,8.074c1.569-0.161,3.052-0.449,4.533-0.438
			c3.276,0.024,6.019,1.486,8.421,3.59c3.456,3.026,5.743,6.845,7.254,11.141c0.162,0.463,0.082,1.144-0.159,1.566
			c-0.145,0.255-0.904,0.396-1.234,0.247c-0.381-0.172-0.708-0.677-0.864-1.108c-1.285-3.559-3.109-6.79-5.843-9.427
			c-3.545-3.421-7.556-4.855-12.343-2.634c-1.025,0.476-1.793,0.085-1.877-0.965c-0.667-8.461-8.718-12.481-16.089-11.087
			c-1.659,0.313-1.782,0.086-2.273-1.544c-0.646-2.142-1.281-4.346-2.351-6.288c-2.074-3.769-5.506-4.827-9.551-3.292
			c-0.335,0.127-0.665,0.268-0.995,0.406c-0.956,0.399-1.691,0.22-2.003-0.533c-0.421-1.014,0.339-1.323,1.037-1.653
			c6.202-2.935,11.705-0.835,14.533,5.607c0.672,1.528,1.134,3.148,1.74,4.861c1.959,0,4.064-0.243,6.082,0.069
			C112.998,71.394,114.885,72.263,116.895,72.912z"/>
		<path fill-rule="evenodd" clip-rule="evenodd" fill="#FFFFFF" d="M210.014,114.111c1.021,0.332,2.074,0.56,3.023,1.008
			c2.148,1.013,2.901,2.913,3.109,5.158c0.147,1.599,0.409,3.189,0.676,4.773c0.104,0.618,0.511,0.857,1.21,0.936
			c2.24,0.25,4.469,0.619,6.694,0.982c1.896,0.311,3.789,0.545,5.576-0.384c0.62-0.322,1.163-0.808,1.701-1.264
			c0.553-0.467,1.094-0.866,1.787-0.302c0.597,0.486,0.569,1.288-0.074,1.992c-2.171,2.375-4.961,2.86-7.976,2.488
			c-2.415-0.298-4.814-0.711-7.224-1.065c-0.278-0.04-0.624-0.134-0.838-0.017c-1.102,0.606-1.811-0.008-2.161-0.866
			c-0.616-1.502-1.092-3.074-1.491-4.65c-0.228-0.891-0.189-1.849-0.27-2.778c-0.171-1.991-1.445-3.248-3.462-3.463
			c-0.919-0.098-1.826-0.298-2.745-0.385c-0.282-0.026-0.614,0.118-0.874,0.271c-2.68,1.568-5.528,1.857-8.515,1.177
			c-0.173-0.038-0.338-0.113-0.509-0.165c-0.806-0.242-1.225-0.715-0.953-1.599c0.27-0.879,0.896-0.893,1.633-0.691
			c3.254,0.891,6.166,0.237,8.732-1.953c0.845-0.722,1.744-1.391,2.52-2.182c2.584-2.628,5.548-4.758,8.634-6.735
			c2.764-1.771,4.78-4.097,5.582-7.344c0.199-0.811,0.723-1.036,1.477-1.121c2.578-0.292,5.083-0.841,7.332-2.236
			c1.803-1.119,3.122-2.63,3.76-4.669c0.282-0.899,0.829-1.265,1.695-0.966c0.917,0.316,0.795,1.023,0.547,1.771
			c-1.32,3.974-4.325,6.12-8.083,7.398c-1.213,0.413-2.512,0.566-3.745,0.929c-0.402,0.118-0.916,0.453-1.047,0.811
			c-1.075,2.941-2.97,5.173-5.536,6.934C216.596,108.376,212.896,110.74,210.014,114.111z"/>
		<path fill-rule="evenodd" clip-rule="evenodd" fill="#FFFFFF" d="M171.861,55.674c0.415-2.425,0.663-4.787,1.241-7.066
			c1.331-5.259,4.545-9.085,9.309-11.656c2.174-1.174,4.311-2.42,6.448-3.661c0.654-0.378,1.242-0.446,1.687,0.231
			c0.438,0.667,0.363,1.335-0.365,1.754c-1.74,1-3.467,2.033-5.267,2.913c-3.869,1.893-6.946,4.535-8.631,8.6
			c-1.219,2.943-1.848,6.004-1.793,9.188c0.019,1.121-0.546,1.511-1.548,1.805c-6.579,1.93-11.574,5.908-14.652,12.04
			c-1.975,3.936-0.776,7.479,2.905,9.864c1.5,0.971,3.12,1.556,4.872,1.88c0.904,0.167,1.799,0.485,2.641,0.86
			c1.161,0.517,1.503,1.34,1.391,2.604c-0.033,0.376,0.098,0.886,0.349,1.146c1.777,1.847,3.388,3.933,6.15,4.448
			c0.743,0.139,1.024,0.796,0.896,1.495c-0.136,0.739-0.724,1.023-1.389,0.773c-1.229-0.463-2.532-0.864-3.594-1.596
			c-1.314-0.908-2.423-2.119-3.605-3.216c-0.852-0.79-1.345-1.727-1.29-2.951c0.012-0.276-0.395-0.733-0.697-0.833
			c-1.219-0.402-2.497-0.629-3.71-1.044c-2.698-0.922-5.127-2.299-6.711-4.766c-2.136-3.329-1.732-6.775-0.15-10.161
			c1.83-3.917,4.887-6.766,8.34-9.239C166.919,57.488,169.316,56.24,171.861,55.674z"/>
		<path fill-rule="evenodd" clip-rule="evenodd" fill="#FFFFFF" d="M95.853,116.126c-2.354-3.727-4.433-7.512-7.006-10.924
			c-1.83-2.425-4.202-4.499-6.567-6.441c-1.879-1.543-4.234-2.208-6.754-1.95c-0.891,0.091-1.477-0.357-1.569-1.239
			c-0.098-0.949,0.607-1.065,1.345-1.118c3.63-0.257,6.886,0.858,9.533,3.216c3.2,2.85,6.417,5.749,8.511,9.612
			c0.888,1.638,1.867,3.225,2.783,4.846c1.916,3.386,4.639,5.721,8.379,6.989c2.342,0.793,4.547,1.989,6.778,2.989
			c0.083-0.21,0.148-0.899,0.512-1.146c0.409-0.277,1.094-0.227,1.651-0.193c4.124,0.248,7.692,1.811,10.727,4.608
			c0.567,0.522,0.862,1.108,0.274,1.768c-0.58,0.653-1.219,0.635-1.869,0.03c-2.849-2.652-6.211-4.034-10.117-4.059
			c-0.201,0-0.402-0.068-0.332-0.208c0.797,1.813,1.614,3.62,2.384,5.445c0.334,0.793,0.085,1.436-0.774,1.692
			c-0.907,0.271-1.284-0.249-1.502-1.061c-0.958-3.574-3.259-5.767-6.756-7c-2.34-0.825-4.46-2.26-6.788-3.129
			c-1.087-0.407-2.458-0.288-3.656-0.11c-1.996,0.296-3.646,1.402-5.174,2.695c-0.352,0.298-0.882,0.585-1.298,0.546
			c-0.354-0.034-0.877-0.51-0.934-0.855c-0.066-0.4,0.178-0.996,0.491-1.29C90.269,117.832,92.778,116.526,95.853,116.126z"/>
		<path fill-rule="evenodd" clip-rule="evenodd" fill="#FFFFFF" d="M150.569,141.784c6.062-1.02,11.259,0.679,15.456,5.251
			c2.062-1.404,4.256-2.295,6.688-2.62c3.905-0.521,7.379,0.521,10.522,2.8c1.115,0.809,1.336,1.449,0.832,2.082
			c-0.549,0.688-1.155,0.65-2.255-0.172c-1.667-1.244-3.496-2.062-5.576-2.346c-3.339-0.456-6.322,0.366-9.002,2.366
			c-1.278,0.955-1.638,0.973-2.692-0.25c-3.675-4.268-8.376-5.507-13.774-4.769c-0.355,0.049-0.711,0.099-1.069,0.112
			c-1.179,0.045-1.521-0.269-1.626-1.459c-0.217-2.468-0.92-4.784-2.311-6.844c-3.292-4.879-9.06-5.931-14.039-2.593
			c-0.267,0.18-0.536,0.36-0.792,0.557c-0.6,0.458-1.211,0.57-1.653-0.146c-0.391-0.631-0.378-1.296,0.286-1.807
			c1.85-1.42,3.924-2.333,6.214-2.781c6.003-1.175,11.146,2.847,13.286,7.95C149.668,138.556,150.033,140.097,150.569,141.784z"/>
		<path fill-rule="evenodd" clip-rule="evenodd" fill="#FFFFFF" d="M128.475,39.332c0.624,0.271,1.024,0.418,1.396,0.612
			c2.843,1.486,4.815,3.832,6.276,6.604c0.501,0.95,0.956,1.205,2.042,1.034c4.85-0.761,9.653-0.287,14.403,0.834
			c3.225,0.759,6.39,1.716,9.038,3.802c1.026,0.81,1.877,1.857,2.748,2.848c0.49,0.557,0.312,1.19-0.234,1.603
			c-0.584,0.442-1.248,0.42-1.693-0.233c-2.229-3.263-5.666-4.508-9.236-5.427c-3.688-0.948-7.448-1.552-11.276-1.356
			c-1.602,0.083-3.206,0.309-4.79,0.584c-1.416,0.247-1.699,0.166-2.342-1.155c-1.524-3.127-3.513-5.822-6.732-7.433
			c-0.333-0.167-0.69-0.838-0.603-1.155C127.594,40.046,128.123,39.711,128.475,39.332z"/>
		<path fill-rule="evenodd" clip-rule="evenodd" fill="#FFFFFF" d="M136.407,151.123c0.341-0.381,0.612-0.901,1.025-1.073
			c0.29-0.12,0.896,0.119,1.154,0.394c1.251,1.33,2.356,2.804,3.653,4.082c3.408,3.361,7.644,3.982,12.166,3.404
			c2.803-0.357,5.578-0.971,8.388-1.197c3.435-0.275,6.37,1.031,8.82,3.453c0.606,0.598,0.816,1.215,0.215,1.869
			c-0.616,0.67-1.239,0.484-1.848-0.119c-2.887-2.859-6.384-3.168-10.183-2.555c-2.924,0.471-5.88,0.885-8.834,0.998
			c-3.967,0.152-7.46-1.254-10.288-4.094c-1.262-1.268-2.428-2.635-3.61-3.98C136.819,152.023,136.688,151.639,136.407,151.123z"/>
		<path fill-rule="evenodd" clip-rule="evenodd" fill="#FFFFFF" d="M254.096,137.956c2.451-1.065,4.83-1.007,7.216-0.167
			c0.992,0.35,1.364,0.975,1.056,1.767c-0.366,0.94-1.091,0.753-1.799,0.521c-1.708-0.56-3.408-0.757-5.139-0.058
			c-0.68,0.275-1.005,0.619-0.938,1.43c0.093,1.138,0.046,2.294-0.018,3.438c-0.055,0.983-0.707,1.501-1.552,1.339
			c-0.799-0.152-0.851-0.737-0.82-1.394c0.108-2.366,0.127-4.718-0.593-7.025c-0.716-2.296-1.981-4.111-4.18-5.192
			c-0.659-0.325-1.09-0.773-0.683-1.523c0.37-0.677,0.964-0.925,1.724-0.601c2.534,1.083,4.084,3.062,5.051,5.564
			C253.65,136.649,253.849,137.258,254.096,137.956z"/>
		<path fill-rule="evenodd" clip-rule="evenodd" fill="#FFFFFF" d="M206.064,54.33c3.638,0.379,6.611,1.954,9.414,3.944
			c0.656,0.467,0.757,1.129,0.281,1.781c-0.481,0.662-1.087,0.554-1.692,0.139c-1.953-1.337-3.951-2.572-6.323-3.051
			c-1.632-0.331-3.2-0.207-4.684,0.585c-0.745,0.397-1.394,0.378-1.797-0.442c-0.376-0.763-0.067-1.377,0.674-1.645
			C203.295,55.151,204.688,54.761,206.064,54.33z"/>
	</g>
</g>
</svg>
