<?xml version="1.0" encoding="utf-8"?>
<!-- Generator: Adobe Illustrator 16.0.0, SVG Export Plug-In . SVG Version: 6.00 Build 0)  -->
<!DOCTYPE svg PUBLIC "-//W3C//DTD SVG 1.1//EN" "http://www.w3.org/Graphics/SVG/1.1/DTD/svg11.dtd">
<svg version="1.1" id="Layer_1" xmlns="http://www.w3.org/2000/svg" xmlns:xlink="http://www.w3.org/1999/xlink" x="0px" y="0px"
	 width="300px" height="300px" viewBox="0 0 300 300" enable-background="new 0 0 300 300" xml:space="preserve">
<g id="QvgzxU.tif">
	<g>
		<path fill-rule="evenodd" clip-rule="evenodd" fill="#FFFFFF" d="M265.668,171.198c-3.824,14.571-9.079,27.938-17.368,40.158
			c-14.138,20.845-32.79,35.74-56.117,45.021c-19.325,7.688-39.523,9.427-59.71,6.498c-22.116-3.209-41.978-12.268-59.29-27.095
			c-18.37-15.731-30.243-35.221-37.339-57.998c-2.185-7.013-2.188-6.94-9.934-4.987c-1.738,0.438-3.875,0.821-5.403,0.193
			c-2.031-0.836-4.576-2.39-5.151-4.193c-0.489-1.532,0.98-4.735,2.507-5.639c2.9-1.716,6.401-2.579,9.758-3.326
			c9.014-2.006,18.098-3.695,27.123-5.653c3.919-0.85,6.71,0.354,7.688,4.19c0.972,3.814-1.406,5.921-4.822,6.887
			c-3.907,1.105-7.862,2.045-11.962,3.1c5.417,23.048,16.296,42.242,33.542,57.502c12.681,11.222,27.387,19.379,43.888,23.205
			c30.979,7.185,60.38,3.04,86.927-15.255c21.197-14.608,35.462-34.492,42.75-59.259c1.546-5.249-0.064-7.406-5.713-8.303
			c-1.93-0.307-3.818-0.936-5.688-1.532c-3.676-1.173-4.646-4.363-3.264-7.132c0.901-1.809,4.281-3.784,6.171-3.46
			c9.58,1.641,19.035,4.004,28.532,6.125c2.575,0.575,5.523,0.599,7.604,1.949c2.018,1.311,4.428,4.054,4.346,6.073
			c-0.118,2.888-2.581,5.374-6.352,4.82C274.209,172.475,270.032,171.847,265.668,171.198z"/>
		<path fill-rule="evenodd" clip-rule="evenodd" fill="#FFFFFF" d="M215.724,85.901c0.695,6.115-1.165,12.46-4.802,18.449
			c-7.432,12.236-19.534,13.365-28.395,2.279c-8.83-11.048-8.703-35.361,1.75-45.883c8.383-8.438,20.418-6.942,26.28,3.442
			C214.927,71.929,215.738,75.193,215.724,85.901z"/>
		<path fill-rule="evenodd" clip-rule="evenodd" fill="#FFFFFF" d="M124.356,82.972c-1.267,12.652-3.173,22.795-13.164,29.054
			c-5.244,3.286-11.38,2.878-16.187-0.963c-6.085-4.862-9.282-11.266-10.525-18.98c-1.411-8.757-0.678-17.057,3.401-24.964
			c3.437-6.66,8.045-11.991,16.297-11.799c8.208,0.191,13.045,5.659,15.961,12.404C122.449,73.066,123.314,79.033,124.356,82.972z"
			/>
	</g>
</g>
</svg>
