<svg version="1.1" id="Layer_1" xmlns="http://www.w3.org/2000/svg" xmlns:xlink="http://www.w3.org/1999/xlink" x="0px" y="0px"
	 width="300px" height="300px" viewBox="0 0 300 300" enable-background="new 0 0 300 300" xml:space="preserve">
<g id="mNQJ86.tif">
	<g id="icon1">
		<path fill-rule="evenodd" clip-rule="evenodd" fill="#FFFFFF" d="M40.037,202.622c-1.202-0.688-2.414-1.303-3.542-2.043
			c-3.773-2.477-4.127-6.961-2.435-10.371c1-2.018,2.279-3.893,3.329-5.887c1.168-2.221,1.037-2.744-0.799-4.533
			c-2.314-2.256-5.173-3.662-7.999-5.123c-2.938-1.514-5.744-3.189-7.987-5.697c-4.667-5.219-4.929-11.375-0.335-16.705
			c2.109-2.447,4.642-4.551,7.106-6.666c5.408-4.64,9.665-10.218,13.451-16.186c2.678-4.221,5.132-8.559,6.456-13.439
			c0.775-2.858,0.725-5.755,0.468-8.66c-0.415-4.701-0.931-9.38-0.598-14.132c0.453-6.456,1.465-12.8,3.781-18.832
			c2.679-6.976,5.579-13.874,8.601-20.708c2.073-4.687,5.371-8.573,9.002-12.163c6.232-6.163,12.833-11.861,20.241-16.606
			c10.181-6.522,21.166-11.163,32.814-14.276c7.988-2.133,15.958-4.353,24.01-6.217c4.104-0.951,8.355-1.378,12.566-1.735
			c8.598-0.727,17.182-0.276,25.717,0.909c9.863,1.371,19.495,3.724,28.901,7.025c7.288,2.558,14.357,5.604,21.184,9.215
			c7.974,4.219,15.512,9.093,22.671,14.605c6.204,4.775,11.995,9.95,17.224,15.768c9.244,10.286,15.399,22.151,18.483,35.647
			c2.381,10.418,3.591,20.943,3.341,31.626c-0.135,5.795-0.812,11.537-1.78,17.254c-1.333,7.871-3.474,15.476-7.298,22.527
			c-3.155,5.818-7.247,10.984-11.424,16.08c-6.723,8.205-13.211,16.586-18.453,25.834c-2.382,4.199-4.441,8.59-6.533,12.945
			c-2.961,6.168-3.17,12.424-0.859,18.932c4.144,11.664,7.927,23.457,12.093,35.115c1.902,5.326,4.366,10.449,6.55,15.68
			c0.374,0.895,0.78,1.828,0.885,2.773c0.17,1.559-0.902,2.867-2.416,3.264c-1.546,0.402-3.195-0.262-3.827-1.699
			c-2.315-5.256-4.755-10.467-6.817-15.818c-2.389-6.201-4.461-12.525-6.608-18.816c-2.059-6.035-3.894-12.148-6.09-18.131
			c-3.066-8.344-2.552-16.34,1.055-24.441c4.477-10.053,10.106-19.381,16.695-28.143c4.365-5.809,8.916-11.479,13.472-17.143
			c6.375-7.922,10.282-16.921,12.309-26.846c1.497-7.332,2.332-14.713,2.363-22.188c0.034-7.74-0.728-15.4-2.298-22.99
			c-1.306-6.307-2.953-12.502-5.598-18.39c-3.673-8.182-9.022-15.2-15.238-21.59c-4.174-4.291-8.629-8.263-13.363-11.937
			c-17.071-13.252-36.198-22.172-57.167-27.212c-9.826-2.362-19.797-3.592-29.909-3.503c-8.662,0.076-17.164,1.233-25.508,3.669
			c-7.428,2.167-14.986,3.897-22.386,6.151c-10.228,3.114-19.746,7.791-28.454,14.035c-6.541,4.69-12.575,9.973-18.121,15.805
			c-3.5,3.68-5.803,8.118-7.661,12.769c-2.521,6.31-5.159,12.597-7.207,19.065c-2.159,6.82-2.722,13.916-2.108,21.099
			c0.347,4.067,0.551,8.17,0.434,12.246c-0.1,3.495-1.414,6.783-2.806,9.984c-2.527,5.805-6.281,10.833-9.912,15.965
			c-4.032,5.701-9.202,10.214-14.376,14.765c-0.899,0.791-1.706,1.732-2.392,2.717c-1.944,2.783-1.736,5.375,0.888,7.523
			c1.973,1.617,4.209,2.934,6.421,4.23c3.232,1.891,6.652,3.514,9.27,6.268c1.184,1.246,2.23,2.684,3.049,4.193
			c0.829,1.525,0.599,3.318-0.028,4.855c-0.892,2.189-2.08,4.26-3.16,6.375c-0.429,0.838-0.917,1.648-1.361,2.482
			c-0.452,0.848-0.237,1.592,0.562,2.045c0.88,0.498,1.806,0.949,2.763,1.268c2.003,0.666,4.054,1.193,6.058,1.857
			c1.701,0.562,2.376,1.643,2.263,3.348c-0.107,1.617-1.003,2.465-2.553,3.068c-1.418,0.549-2.768,1.357-4.015,2.238
			c-0.99,0.699-0.93,2.115-0.014,2.969c0.829,0.771,1.708,1.496,2.604,2.188c4.305,3.33,5.845,7.904,5.266,13.062
			c-0.482,4.291-1.603,8.514-2.451,12.768c-0.596,2.988-0.892,5.975-0.042,8.973c1.016,3.582,3.622,5.561,6.908,6.801
			c4.478,1.688,9.169,1.82,13.873,1.699c7.698-0.193,15.258-1.574,22.851-2.695c4.557-0.676,9.148-1.107,13.724-1.654
			c5.397-0.645,10.784-0.713,16.172,0.154c1.375,0.221,2.454,0.752,3.41,1.785c3.867,4.178,6.115,9.178,7.328,14.639
			c1.335,6.008,2.395,12.078,3.681,18.098c0.4,1.871,1.088,3.689,1.746,5.496c0.689,1.896,0.096,3.668-1.637,4.492
			c-1.706,0.812-3.712,0.199-4.396-1.732c-1.155-3.264-2.177-6.596-2.942-9.971c-1.209-5.338-2.052-10.756-3.258-16.096
			c-0.78-3.453-2.308-6.645-4.661-9.35c-0.401-0.461-1.085-0.84-1.689-0.932c-5.253-0.807-10.498-0.379-15.72,0.33
			c-7.673,1.043-15.332,2.184-23.006,3.215c-6.461,0.869-12.947,1.445-19.467,0.727c-4.004-0.439-7.905-1.318-11.448-3.338
			c-5.402-3.08-8.172-7.799-8.522-13.969c-0.26-4.592,0.773-9.006,1.878-13.412c0.69-2.752,1.392-5.502,1.066-8.385
			c-0.263-2.32-1.166-4.227-3.087-5.701c-1.457-1.119-2.912-2.352-4.01-3.803c-2.362-3.121-2.151-6.994,0.268-10.086
			C39.698,203.052,39.884,202.815,40.037,202.622z"/>
		<path fill-rule="evenodd" clip-rule="evenodd" fill="#FFFFFF" d="M228.822,31.271c0.598-1.753,0.704-1.86,2.429-1.599
			c3.034,0.46,5.657,1.884,8.023,3.752c3.774,2.981,7.278,6.241,10.297,10.026c1.708,2.143,3.571,4.168,6.007,5.61
			c1.728,1.023,3.329,2.298,3.562,4.571c0.017,0.17,0.231,0.399,0.406,0.461c3.322,1.196,5.293,3.839,6.968,6.699
			c2.216,3.784,4.314,7.639,6.367,11.514c1.292,2.44,2.153,5.01,1.275,7.84c-0.064,0.208,0.001,0.553,0.143,0.714
			c2.459,2.769,2.826,5.897,1.59,9.346c3.042,1.143,4.511,3.583,5.301,6.496c1.503,5.534,1.864,11.183,1.305,16.873
			c-0.103,1.029-0.811,1.993-1.191,3.005c-0.183,0.484-0.42,1.036-0.349,1.514c0.752,5.015,1.02,10.067-0.122,15.01
			c-0.535,2.321-0.43,4.673-1.014,6.959c-1.163,4.557-2.484,9.046-5.184,12.978c-0.615,0.895-1.465,1.623-2.166,2.463
			c-1.08,1.295-2.15,2.598-3.172,3.938c-0.684,0.9-1.176,1.961-1.927,2.791c-1.849,2.049-4.194,2.559-6.828,1.885
			c-0.472-0.119-0.937-0.271-1.496-0.436c-0.298,0.832-0.552,1.645-0.878,2.428c-2.026,4.867-4.974,9.135-8.508,13.021
			c-1.013,1.111-1.999,2.25-2.999,3.375c-7.113,8.006-16.008,12.795-26.554,14.416c-7.197,1.104-14.355,0.838-21.247-1.807
			c-2.206-0.85-4.285-2.025-6.47-3.072c-0.175,1.682-0.41,3.459-0.535,5.242c-0.465,6.59,0.459,13.002,2.937,19.111
			c0.807,1.988,2.196,3.768,3.473,5.531c0.89,1.23,1.047,1.898,0.112,2.736c-0.82,0.736-1.64,0.607-2.638-0.453
			c-3.187-3.387-4.84-7.541-5.84-11.98c-1.015-4.506-1.87-9.041-1.491-13.707c0.229-2.826,0.416-5.656,0.641-8.482
			c0.056-0.725-0.147-1.26-0.673-1.809c-0.733-0.77-1.673-1.473-1.602-2.756c0.012-0.199-0.272-0.426-0.435-0.625
			c-3.021-3.77-5.772-7.697-6.852-12.514c-0.353-1.576-0.474-3.199-0.705-4.822c-6.219,0.941-12.441,1.885-18.687,2.83
			c-0.574,2.75,0.68,4.934,2.483,6.883c1.696,1.834,3.465,3.604,5.201,5.4c4.231,4.375,6.736,9.611,8.368,15.459
			c2.67,9.578,7.094,18.318,13.759,25.793c1.608,1.805,3.429,3.422,5.178,5.098c0.927,0.889,1.105,1.684,0.448,2.426
			c-0.702,0.791-1.811,0.826-2.721,0.053c-5.225-4.43-9.428-9.699-12.836-15.623c-3.49-6.066-6.034-12.518-7.812-19.27
			c-1.077-4.09-3.13-7.598-5.981-10.67c-1.88-2.025-3.842-3.975-5.699-6.021c-2.091-2.307-3.833-4.803-3.771-8.125
			c0.016-0.865-0.695-0.615-1.164-0.682c-3.137-0.455-6.316-0.703-9.402-1.381c-6.406-1.406-10.43-5.486-12.333-11.717
			c-0.187-0.611-0.515-1.213-0.555-1.834c-0.126-1.943-1.26-2.873-2.988-3.43c-1.034-0.336-1.999-0.893-2.971-1.393
			c-4.307-2.225-6.323-5.9-6.653-10.611c-0.068-0.975-0.01-1.957-0.01-3.113c-3.01,0.389-5.771-0.196-8.392-1.603
			c-1.975,2.423-4.527,3.651-7.524,3.774c-1.484,0.061-3.072-0.037-4.458-0.513c-2.047-0.704-4.035-0.893-6.119-0.45
			c-4.345,0.919-8.609,0.235-12.765-0.94c-2.593-0.732-5.155-1.773-7.518-3.062c-3.134-1.712-5.153-4.398-5.434-8.135
			c-0.019-0.246-0.084-0.568-0.252-0.711c-2.584-2.229-4.257-5.104-5.632-8.146c-1.244-2.752-2.408-5.55-3.432-8.39
			c-1.301-3.607-1.368-7.379-0.679-11.096c0.817-4.411,1.819-8.792,2.916-13.142c0.546-2.167,1.649-4.124,3.323-5.712
			c0.251-0.238,0.275-0.813,0.251-1.223c-0.183-3.114,0.247-6.104,1.627-8.934c0.865-1.773,2-3.368,3.711-4.334
			c1.257-0.709,1.987-1.68,2.47-2.945c0.958-2.505,1.681-5.132,2.91-7.497c3.439-6.622,7.604-12.744,13.476-17.504
			c1.043-0.846,2.267-1.517,3.494-2.079c2.244-1.027,4.518-1.228,6.682,0.384c3.875-5.665,9.366-9.076,15.588-11.444
			c2.631-1,5.354-1.62,8.219-1.063c0.335,0.065,0.877-0.07,1.079-0.314c2.36-2.85,5.51-4.36,9-5.138
			c5.525-1.231,11.078-2.346,16.639-3.408c3.164-0.604,6.256-0.04,9.241,1.087c0.547,0.207,0.903,0.072,1.429-0.125
			c1.51-0.562,3.07-1.127,4.655-1.317c3.237-0.387,6.436-0.234,9.232,1.832c0.246,0.181,0.753,0.162,1.08,0.055
			c3.854-1.265,7.738-2.08,11.79-1.029c0.363,0.094,0.768,0.164,1.061,0.373c2.059,1.465,4.52,1.182,6.808,1.67
			c2.794,0.597,5.556,1.388,8.272,2.28c1.107,0.364,2.055,1.213,3.182,1.907c0.774-0.869,1.747-0.644,2.839-0.154
			c2.895,1.299,5.855,2.452,8.739,3.772C222.004,26.082,225.741,28.071,228.822,31.271z M75.98,63.445
			c1.764,0.591,2.346,1.544,1.424,2.629c-0.408,0.479-1.298,0.828-1.936,0.78c-2.332-0.174-4.034,0.726-5.284,2.625
			c-1.107,1.684-1.723,3.571-1.768,5.55c-0.043,1.873,0.188,3.759,0.393,5.629c0.147,1.333-0.312,2.25-1.47,2.138
			c-1.107-0.108-1.574,0.382-1.936,1.243c-0.293,0.693-0.718,1.354-0.885,2.075c-0.968,4.192-1.935,8.388-2.788,12.604
			c-0.688,3.4-0.517,6.808,0.733,10.059c1.206,3.135,2.51,6.243,3.969,9.266c0.746,1.546,1.879,2.917,2.924,4.3
			c0.738,0.976,1.233,0.854,1.86-0.139c0.682-1.082,1.369-2.19,2.231-3.122c1.955-2.114,4.425-3.107,7.325-2.93
			c0.865,0.053,1.307,0.539,1.248,1.42c-0.059,0.867-0.58,1.117-1.39,1.096c-2.818-0.075-4.994,1.157-6.457,3.506
			c-0.771,1.238-1.287,2.637-1.896,3.973c-0.519,1.139-0.358,2.226,0.396,3.201c0.483,0.625,0.974,1.265,1.565,1.777
			c1.838,1.592,4.047,2.487,6.356,3.129c4.699,1.306,9.424,2.179,14.316,0.991c1.744-0.424,3.528-0.369,5.232,0.376
			c0.518,0.226,1.067,0.385,1.61,0.543c3.057,0.885,6.016-0.059,7.994-2.539c1.067-1.339,2.326-1.586,3.835-0.769
			c2.003,1.083,4.102,1.785,6.411,1.348c0.306-0.059,0.728-0.489,0.771-0.793c0.186-1.324,0.632-1.908,1.631-1.88
			c1.12,0.03,1.685,0.712,1.686,2.069c0,2.499-0.097,5.003,0.01,7.499c0.103,2.44,0.96,4.733,3.049,6.07
			c2.206,1.414,4.631,2.531,7.065,3.516c0.999,0.406,1.454,0.871,1.681,1.836c0.424,1.799,0.824,3.611,1.412,5.359
			c1.193,3.533,3.416,6.146,6.952,7.625c2.62,1.096,5.344,1.615,8.128,1.908c2.029,0.213,4.112,0.643,6.102,0.4
			c6.487-0.787,12.944-1.826,19.408-2.793c1.713-0.256,2.35-1.182,2.412-2.896c0.015-0.434,0.6-0.967,1.052-1.23
			c0.605-0.355,1.367-0.43,2.004-0.742c2.091-1.018,2.48-2.418,1.318-4.426c-1.26-2.172-3.064-3.828-5.007-5.359
			c-0.544-0.426-0.804-0.961-0.319-1.561c0.451-0.559,1.086-0.979,1.769-0.461c2.581,1.951,5.054,4.031,6.317,7.135
			c1.1,2.695,0.29,5.012-2.203,6.529c-0.587,0.361-1.209,0.662-1.815,0.99c1.675,0.094,3.302,0.051,4.914-0.123
			c4.308-0.465,8.229-1.84,11.51-4.828c1.09-0.992,2.276-1.943,3.811-2.271c0.434-0.092,0.843-0.33,1.242-0.541
			c3.528-1.861,5.607-4.873,6.701-8.615c2.064-7.064-0.052-12.531-6.268-16.481c-0.318-0.202-0.537-0.89-0.471-1.299
			c0.131-0.799,1.02-1.105,1.91-0.732c2.763,1.157,4.829,3.113,6.187,5.75c2.513,4.882,2.394,9.913,0.512,14.942
			c-1.469,3.926-3.934,7.049-7.816,8.887c-0.524,0.248-1.067,0.461-1.716,0.738c2.766,0.904,5.004,0.795,8.154-0.762
			c3.659-1.805,7.221-3.807,10.81-5.75c0.829-0.449,1.666-0.92,2.391-1.516c2.018-1.654,3.638-3.303,3.017-6.464
			c-0.793-4.032,2.111-8.177,5.808-8.925c0.985-0.2,1.327-0.587,1.653-1.463c1.875-5.048,5.433-8.652,10.006-11.338
			c0.732-0.43,1.312-0.218,1.735,0.459c0.413,0.662,0.255,1.229-0.387,1.66c-0.314,0.211-0.639,0.406-0.956,0.612
			c-4.138,2.682-7.265,6.144-8.475,11.064c-0.227,0.919-0.78,1.309-1.694,1.35c-0.56,0.026-1.141,0.078-1.668,0.251
			c-2.899,0.952-4.249,4.008-3.285,7.352c0.75,2.597,2.735,4.23,5.423,4.533c0.374,0.043,0.849,0.26,1.054,0.551
			c1.061,1.508,2.624,2.203,4.3,2.539c4.13,0.832,7.862,2.639,11.586,4.48c2.301,1.139,4.516,2.459,6.849,3.521
			c2.088,0.951,3.577,0.645,4.834-0.846c0.786-0.932,1.389-2.02,1.989-2.914c-1.171-0.875-2.255-1.57-3.199-2.422
			c-0.862-0.777-0.649-1.98,0.338-2.598c0.752-0.473,1.409-0.311,2.054,0.273c2.054,1.859,3.683,2.344,5.684-0.883
			c1.495-2.41,2.436-5.171,3.51-7.824c0.496-1.226,0.721-2.562,1.06-3.816c-0.791-0.183-1.397-0.267-1.962-0.467
			c-0.996-0.354-1.438-1.285-1.104-2.292c0.324-0.974,1.038-1.153,1.993-0.986c0.324,0.057,0.812-0.181,1.049-0.442
			c0.287-0.319,0.428-0.794,0.563-1.223c1.104-3.484,1.004-7.097,1.062-10.685c0.021-1.33-0.203-2.664-0.322-4.072
			c-1.221,0.477-2.232,0.888-3.257,1.266c-1.084,0.401-1.875,0.142-2.195-0.685c-0.368-0.952-0.009-1.929,0.94-2.359
			c0.927-0.422,1.887-0.771,2.834-1.146c2.182-0.867,3.28-2.447,3.201-4.821c-0.087-2.61,0.043-5.248-0.29-7.826
			c-0.337-2.601-1.041-5.165-1.751-7.698c-0.363-1.299-1.277-2.345-2.681-2.701c-0.313-0.08-0.925,0.135-1.058,0.39
			c-0.498,0.959-0.918,1.971-1.243,3.001c-0.363,1.152-1.17,1.576-2.242,1.036c-0.89-0.446-1.352-1.471-0.835-2.645
			c0.692-1.577,1.659-3.033,2.474-4.56c0.493-0.926,1.187-1.854,1.308-2.842c0.141-1.137-0.104-2.388-0.472-3.494
			c-0.176-0.528-0.988-0.886-1.566-1.231c-0.875-0.525-1.311-1.591-0.723-2.55c1.237-2.021,0.993-4.01-0.033-5.932
			c-2.406-4.501-4.85-8.983-7.39-13.41c-0.881-1.538-2.091-2.892-3.834-3.58c-0.26-0.102-0.564-0.171-0.838-0.145
			c-0.789,0.08-1.575,0.206-2.359,0.334c-1.143,0.188-2.379,0.176-3.403,0.633c-3.646,1.63-5.266,4.762-5.648,8.548
			c-0.195,1.933-1.357,2.85-2.87,3.593c-0.68,0.335-1.309,0.156-1.655-0.496c-0.355-0.668-0.287-1.338,0.504-1.716
			c1.091-0.522,1.685-1.328,1.637-2.583c-0.015-0.366,0.128-0.742,0.223-1.106c1.271-4.856,5.052-9.08,9.984-9.409
			c1.128-0.075,1.611-1.313,0.827-2.159c-0.603-0.653-1.446-1.076-2.13-1.663c-1.483-1.273-3.138-2.417-4.355-3.912
			c-3.51-4.312-7.473-8.131-11.829-11.554c-1.975-1.55-4.139-2.746-6.808-3.111c0.195,0.332,0.316,0.561,0.459,0.776
			c1.513,2.279,2.395,4.792,2.686,7.499c0.145,1.347-0.618,1.992-1.923,1.752c-0.98-0.182-1.287-0.902-1.466-1.783
			c-0.225-1.105-0.425-2.236-0.829-3.281c-1.416-3.676-4.128-6.302-7.519-8.032c-4.229-2.158-8.655-3.929-13-5.86
			c-0.071-0.032-0.181,0.023-0.065,0.005c0.516,2.548,1.229,5.034,1.463,7.565c0.182,1.954-0.141,3.977-0.429,5.941
			c-0.151,1.035-1.099,1.424-2.111,1.161c-0.925-0.241-1.397-0.89-1.144-1.781c0.949-3.311,0.299-6.516-0.482-9.731
			c-0.75-3.084-2.475-5.235-5.657-5.997c-2.056-0.492-4.122-0.945-6.193-1.364c-0.287-0.059-0.74,0.09-0.938,0.307
			c-1.183,1.293-2.215,1.314-3.26-0.055c-1.12-1.467-2.623-2.323-4.402-2.54c-3.532-0.431-6.879,0.351-10.125,1.754
			c-0.514,0.222-1.475,0.181-1.846-0.158c-2.791-2.552-5.964-2.685-9.504-1.763c1.215,0.854,2.353,1.592,3.418,2.423
			c0.68,0.53,1.385,1.111,1.845,1.821c1.716,2.651,1.116,5.552,0.59,8.366c-0.181,0.962-1.254,1.138-2.179,0.91
			c-0.862-0.213-1.035-0.91-0.951-1.689c0.08-0.751,0.178-1.501,0.296-2.248c0.342-2.151-0.172-3.851-2.27-4.923
			c-1.512-0.773-2.907-1.77-4.393-2.598c-2.616-1.458-5.377-2.477-8.438-2.147c-6.701,0.722-13.271,2.14-19.755,3.943
			c-2.073,0.576-3.952,1.638-5.266,3.447c0.316,0.423,0.631,0.759,0.849,1.149c0.485,0.868,0.22,1.646-0.506,2.209
			c-0.616,0.479-1.354,0.581-1.949-0.072c-1.907-2.09-4.357-2.332-6.793-1.589c-6.722,2.048-12.711,5.266-16.561,11.49
			c-0.258,0.417-0.447,1.019-0.363,1.479c0.288,1.579-0.031,2.433-1.196,2.716c-1.127,0.273-1.666-0.211-2.101-1.891
			c-0.009-0.036-0.029-0.07-0.039-0.107c-0.621-2.436-1.857-3.124-4.072-1.987c-1.564,0.804-3.157,1.733-4.399,2.952
			C83.283,47.263,78.254,54.526,75.98,63.445z M181.698,165.737c-0.777,3.926,0.239,7.523,2.013,10.934
			c1.812,3.484,4.375,6.424,7.084,9.246c3.175,3.303,6.974,5.533,11.362,6.744c4.939,1.363,9.968,1.607,15.067,1.168
			c6.569-0.564,12.619-2.59,18.166-6.131c4.376-2.791,8.055-6.346,11.43-10.275c2.494-2.902,4.847-5.881,6.666-9.252
			c1.034-1.914,1.954-3.883,2.359-6.057c-4.957-2.662-9.81-5.26-15.25-6.539c-2.148-0.508-4.171-1.385-5.554-3.271
			c-0.087-0.119-0.191-0.238-0.314-0.314c-1.578-0.971-3.161-1.934-4.612-2.818c-1.088,1.025-2.182,2.316-3.522,3.256
			c-1.818,1.273-3.799,2.33-5.759,3.389c-2.956,1.594-5.881,3.273-8.954,4.607c-3.217,1.398-6.575,1.66-9.874-0.033
			c-0.306-0.156-0.954-0.002-1.253,0.242c-3.548,2.885-7.671,4.297-12.15,4.736C186.352,165.589,184.082,165.614,181.698,165.737z"
			/>
		<path fill-rule="evenodd" clip-rule="evenodd" fill="#FFFFFF" d="M223.433,71.763c-3.508-0.013-6.578-0.933-9.306-2.881
			c-2.385-1.702-4.031-3.955-4.874-6.775c-0.074-0.251-0.134-0.51-0.175-0.769c-0.138-0.846,0.184-1.427,1.048-1.584
			c0.848-0.154,1.249,0.36,1.423,1.109c0.478,2.057,1.569,3.73,3.095,5.173c4.626,4.375,12.722,4.269,17.242-0.214
			c0.381-0.377,1.024-0.781,1.488-0.723c1.035,0.129,1.305,1.356,0.539,2.212c-1.791,2.004-4.035,3.274-6.623,3.954
			c-0.546,0.144-1.1,0.261-1.624,0.385c0.63,3.812,0.501,7.441-2.354,10.372c-2.787,2.861-6.479,3.133-10.168,3.167
			c-1.319,7.327-11.102,11.435-16.935,9.075c-0.265-0.107-0.751-0.053-0.953,0.127c-3.681,3.283-7.739,3.814-12.181,1.757
			c-0.1-0.046-0.214-0.062-0.323-0.086c-0.035-0.007-0.073,0.007-0.166,0.019c-2.236,4.744-6.599,6.139-11.294,6.752
			c-5.81,0.759-11.695,1.154-17.17,3.433c-2.736,1.139-5.322,2.654-7.926,4.092c-0.926,0.51-1.518,0.541-2.004-0.468
			c-0.102-0.211-0.334-0.378-0.537-0.521c-1.143-0.804-2.376-1.501-3.43-2.408c-2.388-2.052-5.132-2.996-8.24-2.946
			c-3.869,0.062-6.533-1.99-8.726-4.901c-1.319-1.75-2.586-3.544-3.994-5.221c-1.65-1.965-3.942-2.41-6.375-2.279
			c-1.355,0.073-2.706,0.231-4.056,0.383c-0.97,0.11-1.501-0.379-1.489-1.258c0.011-0.823,0.561-1.194,1.451-1.211
			c1.084-0.021,2.168-0.198,3.246-0.35c4.612-0.654,8.075,1.077,10.667,4.903c1.266,1.869,2.724,3.618,4.204,5.328
			c1.216,1.403,2.85,2.058,4.727,2.127c1.323,0.05,2.654,0.107,3.96,0.3c2.238,0.331,4.074,1.509,5.812,2.902
			c1.114,0.893,2.311,1.701,3.551,2.406c0.385,0.218,1.125,0.145,1.545-0.084c6.596-3.583,13.586-5.763,21.105-6.299
			c3.229-0.23,6.546-0.444,9.39-2.247c1.051-0.666,1.914-1.679,2.733-2.644c0.664-0.781,0.911-1.649-0.085-2.534
			c-0.662-0.587-0.542-1.395,0.129-1.988c0.622-0.548,1.11-0.198,1.672,0.258c1.693,1.375,3.241,2.958,5.649,3.176
			c2.694,0.244,4.927-0.508,6.709-2.525c1.23-1.391,1.201-1.396,2.813-0.62c1.776,0.856,3.645,0.935,5.537,0.518
			c2.566-0.564,4.858-1.656,6.627-3.667c1.053-1.196,1.704-2.556,1.791-4.19c0.08-1.484,0.394-1.623,1.935-1.69
			c1.917-0.083,3.876-0.099,5.731-0.521c3.275-0.745,5.144-3.335,5.185-6.716C223.444,74.206,223.433,73.038,223.433,71.763z"/>
		<path fill-rule="evenodd" clip-rule="evenodd" fill="#FFFFFF" d="M118.029,64.659c2.368-2.295,5.532-3.401,8.975-3.759
			c3.359-0.349,6.542,0.357,9.521,1.965c0.752,0.407,1.248,0.933,0.774,1.818c-0.496,0.924-1.226,0.804-2.032,0.391
			c-5.375-2.757-10.484-2.157-15.513,1.26c2.519,2.413,4.119,5.255,4.721,8.52c1.654-0.17,3.218-0.475,4.781-0.463
			c3.457,0.026,6.352,1.568,8.886,3.789c3.646,3.191,6.06,7.221,7.653,11.754c0.171,0.489,0.086,1.206-0.168,1.651
			c-0.152,0.269-0.954,0.417-1.303,0.261c-0.402-0.182-0.747-0.714-0.911-1.169c-1.355-3.755-3.281-7.163-6.165-9.947
			c-3.741-3.61-7.973-5.122-13.022-2.779c-1.082,0.502-1.892,0.091-1.979-1.018c-0.704-8.927-9.199-13.168-16.977-11.699
			c-1.75,0.331-1.879,0.09-2.398-1.629c-0.682-2.259-1.352-4.585-2.48-6.633c-2.188-3.977-5.809-5.093-10.077-3.474
			c-0.353,0.134-0.701,0.282-1.049,0.427c-1.007,0.421-1.784,0.232-2.114-0.562c-0.445-1.07,0.359-1.396,1.095-1.745
			c6.543-3.095,12.349-0.88,15.333,5.917c0.708,1.612,1.196,3.322,1.835,5.129c2.068,0,4.288-0.256,6.418,0.073
			C113.917,63.057,115.906,63.975,118.029,64.659z"/>
		<path fill-rule="evenodd" clip-rule="evenodd" fill="#FFFFFF" d="M216.274,108.127c1.079,0.352,2.189,0.592,3.19,1.064
			c2.267,1.069,3.061,3.072,3.281,5.441c0.154,1.687,0.432,3.365,0.714,5.036c0.108,0.651,0.538,0.905,1.275,0.988
			c2.363,0.263,4.714,0.651,7.063,1.035c2,0.327,3.996,0.575,5.884-0.405c0.652-0.34,1.226-0.853,1.794-1.334
			c0.584-0.493,1.154-0.914,1.885-0.318c0.63,0.513,0.602,1.359-0.077,2.101c-2.292,2.506-5.234,3.019-8.415,2.626
			c-2.548-0.314-5.082-0.751-7.621-1.125c-0.294-0.043-0.66-0.141-0.884-0.018c-1.163,0.639-1.912-0.008-2.282-0.913
			c-0.649-1.586-1.15-3.243-1.573-4.907c-0.239-0.94-0.199-1.952-0.283-2.932c-0.181-2.1-1.526-3.426-3.653-3.654
			c-0.969-0.104-1.927-0.314-2.896-0.406c-0.299-0.028-0.649,0.125-0.923,0.285c-2.827,1.655-5.833,1.96-8.982,1.243
			c-0.183-0.041-0.357-0.119-0.537-0.173c-0.852-0.255-1.293-0.754-1.007-1.687c0.285-0.928,0.945-0.942,1.724-0.729
			c3.433,0.939,6.506,0.25,9.213-2.061c0.893-0.761,1.841-1.468,2.66-2.301c2.725-2.773,5.853-5.021,9.108-7.106
			c2.916-1.868,5.044-4.323,5.888-7.748c0.212-0.855,0.764-1.093,1.559-1.183c2.719-0.309,5.363-0.887,7.735-2.36
			c1.903-1.18,3.296-2.774,3.968-4.926c0.297-0.949,0.874-1.335,1.789-1.02c0.968,0.333,0.838,1.08,0.576,1.87
			c-1.393,4.192-4.563,6.456-8.527,7.806c-1.28,0.436-2.65,0.597-3.951,0.98c-0.425,0.125-0.967,0.479-1.104,0.856
			c-1.134,3.103-3.134,5.458-5.843,7.315C223.22,102.077,219.314,104.571,216.274,108.127z"/>
		<path fill-rule="evenodd" clip-rule="evenodd" fill="#FFFFFF" d="M176.021,46.472c0.438-2.56,0.7-5.051,1.31-7.455
			c1.404-5.549,4.795-9.585,9.82-12.298c2.295-1.239,4.549-2.554,6.805-3.862c0.689-0.4,1.311-0.47,1.779,0.243
			c0.462,0.704,0.382,1.41-0.386,1.851c-1.837,1.054-3.658,2.145-5.557,3.074c-4.082,1.997-7.329,4.784-9.105,9.074
			c-1.285,3.104-1.95,6.333-1.893,9.693c0.021,1.183-0.575,1.595-1.632,1.905c-6.943,2.037-12.213,6.233-15.461,12.703
			c-2.084,4.151-0.818,7.89,3.066,10.407c1.583,1.026,3.292,1.643,5.14,1.984c0.954,0.176,1.897,0.511,2.787,0.908
			c1.224,0.545,1.584,1.414,1.466,2.748c-0.034,0.396,0.104,0.935,0.368,1.21c1.876,1.949,3.574,4.149,6.489,4.693
			c0.784,0.146,1.081,0.839,0.945,1.577c-0.143,0.779-0.764,1.08-1.465,0.815c-1.297-0.487-2.673-0.911-3.792-1.683
			c-1.387-0.958-2.557-2.235-3.804-3.394c-0.898-0.834-1.419-1.821-1.361-3.113c0.013-0.292-0.415-0.775-0.735-0.88
			c-1.287-0.423-2.634-0.663-3.915-1.101c-2.846-0.973-5.409-2.425-7.079-5.028c-2.254-3.513-1.829-7.148-0.159-10.721
			c1.93-4.132,5.156-7.139,8.799-9.749C170.808,48.386,173.337,47.069,176.021,46.472z"/>
		<path fill-rule="evenodd" clip-rule="evenodd" fill="#FFFFFF" d="M95.827,110.254c-2.483-3.932-4.676-7.927-7.392-11.526
			c-1.93-2.558-4.434-4.745-6.93-6.795c-1.982-1.628-4.467-2.33-7.125-2.059c-0.941,0.097-1.56-0.375-1.655-1.306
			c-0.104-1.001,0.639-1.124,1.419-1.179c3.829-0.271,7.265,0.905,10.058,3.393c3.376,3.007,6.769,6.065,8.979,10.142
			c0.936,1.727,1.969,3.402,2.937,5.113c2.021,3.572,4.894,6.037,8.84,7.374c2.471,0.837,4.797,2.099,7.152,3.154
			c0.087-0.22,0.155-0.948,0.54-1.208c0.432-0.293,1.155-0.24,1.743-0.204c4.351,0.261,8.116,1.91,11.318,4.861
			c0.597,0.551,0.909,1.169,0.29,1.867c-0.612,0.689-1.286,0.67-1.972,0.031c-3.006-2.798-6.554-4.255-10.675-4.282
			c-0.211-0.001-0.423-0.073-0.35-0.221c0.841,1.915,1.704,3.819,2.516,5.746c0.354,0.837,0.09,1.515-0.816,1.786
			c-0.956,0.285-1.356-0.264-1.585-1.119c-1.011-3.771-3.439-6.085-7.129-7.387c-2.467-0.87-4.705-2.384-7.161-3.302
			c-1.147-0.428-2.593-0.303-3.857-0.115c-2.106,0.312-3.846,1.479-5.459,2.843c-0.372,0.314-0.931,0.618-1.371,0.576
			c-0.373-0.035-0.925-0.538-0.984-0.902c-0.07-0.422,0.188-1.051,0.519-1.36C89.935,112.053,92.582,110.675,95.827,110.254z"/>
		<path fill-rule="evenodd" clip-rule="evenodd" fill="#FFFFFF" d="M153.556,137.324c6.398-1.075,11.879,0.717,16.309,5.539
			c2.176-1.48,4.489-2.42,7.056-2.762c4.121-0.552,7.786,0.549,11.103,2.953c1.177,0.853,1.41,1.529,0.878,2.196
			c-0.579,0.725-1.22,0.687-2.381-0.181c-1.758-1.313-3.688-2.175-5.883-2.475c-3.522-0.482-6.669,0.386-9.496,2.496
			c-1.35,1.007-1.73,1.027-2.842-0.266c-3.877-4.502-8.837-5.809-14.532-5.03c-0.375,0.052-0.75,0.104-1.128,0.119
			c-1.243,0.048-1.604-0.284-1.716-1.54c-0.229-2.603-0.971-5.046-2.438-7.22c-3.474-5.146-9.559-6.257-14.812-2.735
			c-0.283,0.189-0.565,0.379-0.837,0.586c-0.633,0.484-1.278,0.602-1.744-0.153c-0.412-0.667-0.399-1.369,0.302-1.907
			c1.952-1.499,4.141-2.461,6.557-2.934c6.334-1.241,11.76,3.003,14.017,8.387C152.606,133.918,152.991,135.544,153.556,137.324z"/>
		<path fill-rule="evenodd" clip-rule="evenodd" fill="#FFFFFF" d="M130.246,29.229c0.658,0.287,1.079,0.442,1.472,0.647
			c3,1.567,5.08,4.043,6.623,6.968c0.527,1.002,1.008,1.27,2.154,1.09c5.116-0.803,10.186-0.303,15.197,0.879
			c3.4,0.802,6.741,1.811,9.534,4.012c1.084,0.855,1.979,1.959,2.899,3.006c0.518,0.587,0.33,1.255-0.247,1.691
			c-0.616,0.467-1.316,0.443-1.786-0.246c-2.353-3.444-5.978-4.757-9.746-5.726c-3.891-1.001-7.857-1.638-11.896-1.432
			c-1.692,0.087-3.384,0.326-5.054,0.617c-1.494,0.26-1.793,0.173-2.472-1.22c-1.608-3.299-3.707-6.143-7.103-7.843
			c-0.352-0.176-0.73-0.884-0.638-1.218C129.316,29.983,129.873,29.629,130.246,29.229z"/>
		<path fill-rule="evenodd" clip-rule="evenodd" fill="#FFFFFF" d="M138.614,147.181c0.36-0.405,0.646-0.953,1.082-1.134
			c0.307-0.127,0.946,0.127,1.219,0.416c1.32,1.404,2.485,2.955,3.854,4.306c3.596,3.547,8.066,4.203,12.836,3.59
			c2.957-0.377,5.886-1.023,8.85-1.262c3.624-0.293,6.722,1.088,9.307,3.643c0.64,0.631,0.86,1.281,0.228,1.973
			c-0.65,0.705-1.309,0.51-1.95-0.125c-3.046-3.016-6.735-3.344-10.744-2.697c-3.085,0.496-6.203,0.932-9.32,1.053
			c-4.186,0.162-7.871-1.322-10.854-4.316c-1.333-1.34-2.562-2.781-3.811-4.201C139.048,148.128,138.911,147.722,138.614,147.181z"
			/>
		<path fill-rule="evenodd" clip-rule="evenodd" fill="#FFFFFF" d="M262.785,133.286c2.587-1.123,5.097-1.063,7.612-0.177
			c1.048,0.369,1.439,1.029,1.114,1.864c-0.387,0.991-1.151,0.794-1.897,0.55c-1.804-0.592-3.596-0.799-5.421-0.061
			c-0.718,0.289-1.061,0.653-0.991,1.508c0.098,1.201,0.049,2.42-0.018,3.628c-0.058,1.037-0.746,1.582-1.638,1.412
			c-0.845-0.161-0.898-0.777-0.866-1.469c0.115-2.497,0.133-4.979-0.624-7.414c-0.756-2.423-2.092-4.338-4.411-5.479
			c-0.696-0.342-1.15-0.815-0.72-1.606c0.39-0.716,1.017-0.977,1.817-0.635c2.674,1.143,4.309,3.23,5.331,5.871
			C262.315,131.907,262.525,132.549,262.785,133.286z"/>
		<path fill-rule="evenodd" clip-rule="evenodd" fill="#FFFFFF" d="M212.109,45.053c3.837,0.401,6.975,2.062,9.932,4.161
			c0.693,0.492,0.798,1.191,0.297,1.88c-0.509,0.698-1.146,0.585-1.787,0.146c-2.061-1.411-4.169-2.714-6.67-3.219
			c-1.723-0.348-3.376-0.218-4.942,0.617c-0.785,0.42-1.47,0.399-1.896-0.466c-0.396-0.805-0.07-1.455,0.712-1.736
			C209.186,45.92,210.655,45.508,212.109,45.053z"/>
	</g>
</g>
	
	
	
	
	
	
	<g id="FphWI2.tif">
	<g id="icon2">
		<path fill="#FFFFFF" d="M45.047,259.761c1.308,1.405,3.014,3.238,5.186,5.573c33.207-40.493,56.938-61.302,89.76-101.326
			C138.788,163.414,71.182,228.72,45.047,259.761z M-5.404,205.953c1.753-1.498,3.408-2.875,5.034-4.308
			c33.031-29.133,66.065-58.255,99.067-87.44c2.22-1.961,4.102-2.829,7.005-1.735c4.463,1.682,9.21,2.12,13.836,3.085
			c0.161-0.721,0.322-1.443,0.483-2.164c-1.393-0.855-2.725-2.002-4.19-2.499c-2.609-0.885-5.339-1.177-7.948-2.066
			c-9.309-3.174-11.35-9.414-6.188-21.179c-1.578,0-3.031-0.588-3.719,0.097c-3.937,3.915-3.805,11.157,0.23,20.105
			c-0.506,0.542-1.003,1.168-1.57,1.667c-33.525,29.499-67.055,58.992-100.591,88.469C-6.103,199.874-8.764,201.46-5.404,205.953z
			 M193.775,87.786c5.465-8.444,4.447-21.136-3.074-20.429C195.336,73.663,195.459,74.486,193.775,87.786z M187.818,63.467
			c0.467-0.017,0.934-0.033,1.4-0.049c0-3.885,0.578-7.989-0.238-11.568c-0.43-1.894-3.285-2.877-5.047-4.271
			c-0.248,0.41-0.498,0.818-0.746,1.225C188.27,51.866,189.176,57.083,187.818,63.467z M174.143,145.518
			c-0.773-0.14-8.199,2.326-8.188,2.546c0.029,0.609,0.057,1.219,0.088,1.829c2.342,0.157,4.699,0.504,7.023,0.281
			C173.65,150.119,174.074,146.101,174.143,145.518z M194.055,113.483c4.551-6.007,5.033-10.922,1.926-15.521
			C195.385,102.767,194.715,108.166,194.055,113.483z"/>
		<path fill-rule="evenodd" clip-rule="evenodd" fill="#FFFFFF" d="M202.906,80.909l0.131-0.167
			c-0.035,0.019-0.072,0.037-0.109,0.056C202.922,80.835,202.914,80.872,202.906,80.909z"/>
		<path fill-rule="evenodd" clip-rule="evenodd" fill="#FFFFFF" d="M125.72,51.98c1.099,1.041,2.297,1.897,3.544,2.503
			C130.133,54.906,128.38,53.906,125.72,51.98z"/>
		<path fill-rule="evenodd" clip-rule="evenodd" fill="#FFFFFF" d="M202.775,59.713c-0.246-0.489-0.021-1.412,0.064-2.118
			c0.65-5.348,0.539-12.062-2.484-16.27c-3.936-5.478-10.377-3.995-15.533-4.447c-5.559-0.488-9.096-5.803-13.951-8.486
			c-5.666-3.129-12.016-2.863-17.953-4.604c-3.717-1.09-6.984-3.352-10.859-3.632c-4.135-0.298-8.273,0.562-12.367,1.192
			c-4.341,0.669-9.958-0.529-13.914,2.33c-3.213,2.32-4.129,7.513-4.863,11.793c-0.281,1.64-0.834,4.09-1.737,4.52
			c-6.57,3.136-7.349,10.367-8.259,17.755c-0.335,2.723-0.978,5.575-2.067,7.917c-3.208,6.898-3.023,14.81,1.616,20.003
			c3.891,4.355,21.396,15.955,21.396,15.955c3.139,2.947,0.498,7.703-4.209,12.632c2.999,3.791,6.638-0.015,9.705-8.751
			c10.287,0.604,13.707-8.693,11.393-18.804c5.01-4.534,5.896-10.756,4.824-15.657c-1.133-5.155,3.663-13.704,6.786-15.896
			c6.303-4.424,18.354-2.948,24.133-8.062c-0.045-0.405-0.211-0.694-0.492-0.869c1.613,0.989,9.387-5.493,11.871-5.774
			c4.412-0.501,10.332,0.938,13,5.996c2.762,5.226,0.998,13.235-3.217,16.207c2.695-1.902,5.23,3.623,5.506,6.107
			c0.5,4.589-1.566,8.81-1.35,13.334c0.453,0.004,2.998-0.622,3.115-1.285C204.178,73.763,206.283,66.729,202.775,59.713z
			 M118.735,27.778c2.377-1.247,5.088-1.446,7.649-2.119c0.154,0.556,0.308,1.111,0.461,1.667c-4.515,2.064-7.334,5.693-7.003,12.12
			c0.245,4.749,2.63,9.455,5.878,12.534c2.66,1.925,4.413,2.926,3.544,2.503c-1.247-0.606-2.445-1.462-3.544-2.503
			c-3.167-2.293-7.62-5.897-10.481-9.986C112.384,37.912,114.434,30.035,118.735,27.778z M126.46,101.024
			c-7.705-4.667-15.367-9.457-22.992-14.338c-4.129-2.642-4.702-16.351-0.846-19.459c0.587-0.472,1.63-0.427,2.337-0.129
			c0.918,0.387,1.799,1.136,2.547,1.953c6.715,7.336,14.338,12.361,22.792,15.563c2.946,1.117,6.103,2.699,6.211,7.891
			C136.721,99.207,131.268,103.937,126.46,101.024z M131.439,82.298c-9.055-4.392-16.967-11.024-24.624-18.468
			c-3.517-3.418-2.593-7.224-1.786-11.281c0.824-4.14,2.532-7.557,6.108-8.13c1.019-0.164,2.442,0.927,3.254,1.984
			c6.155,8.017,12.912,14.763,21.055,19.327c2.526,1.415,4.304,5.031,5.563,6.582C140.917,81.668,136.607,84.805,131.439,82.298z
			 M153.113,48.652c-2.462,0.751-4.471,2.34-7.063,3.188c-4.604,1.505-9.46,0.557-14.028-0.629
			c-2.519-0.653-5.272-3.169-6.837-5.871c-3.937-6.789-1.195-14.324,5.237-15.746c5.157-1.14,10.266-2.748,15.454-3.51
			c2.562-0.377,5.607-0.194,7.82,1.269c6.52,4.312,12.734,9.389,19.316,14.355c-5.61,2.549-11.11,6.333-17.476,6.534
			C154.666,48.271,153.868,48.422,153.113,48.652z M175.398,38.44c-4.387-2.653-8.773-5.305-13.162-7.957
			c0.25-0.802,0.5-1.602,0.75-2.403c4.375,2.823,8.75,5.645,13.125,8.467C175.875,37.179,175.635,37.81,175.398,38.44z"/>
		<path fill-rule="evenodd" clip-rule="evenodd" fill="#FFFFFF" d="M151.586,153.268c0.764-0.332,0.133,3.025,0.053,3.281
			c-0.389,1.266-1.766,2.224-2.578,2.945c-1.766,1.566-3.891,2.428-5.796,3.651c-15.04,9.661-27.11,24.974-39.213,39.969
			c-13.585,16.834-46.261,53.004-53.818,62.22c-2.172-2.335-3.877-4.168-5.186-5.573c14.04-16.676,18.765-17.041,32.803-33.72
			c14.568-17.306,29.105-31.714,44.096-48.418c9.199-10.248,18.676-17.32,29.573-24.32
			C151.543,153.288,151.566,153.275,151.586,153.268z"/>
		<path fill-rule="evenodd" clip-rule="evenodd" fill="#FFFFFF" d="M273.408,255.337c-2.299,4.938-4.49,4.756-7.842,2.042
			c-16.971-13.751-96.801-80.766-107.68-93.155c-1.938-2.208-4.418-3.629-7.41-6.024c0.186-0.991,0.059-4.348,1.072-5.072
			c4.035-2.887,28.869-10.368,34.361-8.377c-2.854,1.11-26.244,10.35-29.105,11.461c0.848,1.174,13.844,12.926,18.74,18.979
			c7.631,9.438,25.812,23.66,42.455,37.099c8.912,7.198,44.559,34.448,52.391,40.561
			C271.344,253.596,272.271,254.399,273.408,255.337z"/>
		<path fill-rule="evenodd" clip-rule="evenodd" fill="#FFFFFF" d="M202.906,80.909c3.727,3.621,2.361,8.767,2.389,13.462
			c0.008,1.226-0.625,2.481-0.547,3.678c0.381,5.759,0.906,11.502,1.592,19.844c31.619,22.986,65.07,47.303,98.846,71.859
			c-0.312,1.068-0.953,3.249-1.785,6.089c-33.441-24.937-66.666-49.71-100.424-74.884c2.184,1.627-6.389,15.048-7.473,16.276
			c-3.785,4.292-9.387,8.929-14.568,9.393c-1.121,0.098-2.865-0.692-3.705-1.434c4.845-3.506,13.624-10.425,18.777-17.192
			c2.916-3.829,7.135-16.199,7.416-19.761c0.09-1.109-3.123-13.309-4.174-11.239c2.441-4.804,3.787-10.429,2.25-16.175
			c-0.26-0.968,1.248,1.138,1.531-0.077C203.037,80.742,202.906,80.909,202.906,80.909z"/>
		<path fill-rule="evenodd" clip-rule="evenodd" fill="#FFFFFF" d="M-5.404,205.953c-3.36-4.493-0.698-6.079,1.449-7.968
			c33.537-29.478,67.066-58.97,100.591-88.469c0.566-0.499,1.064-1.124,1.57-1.667c-4.035-8.948-2.978-19.977,0.96-23.894
			c0.688-0.684,2.174,3.457,3.753,3.457c-5.162,11.765-4.345,18.24,4.964,21.414c2.177,0.742,4.421,1.057,6.622,1.665
			c1.233,0.341,3.698,0.604,4.538,2.006c0.132,0.22,1.28,3.221,0.495,3.058c-4.626-0.965-9.373-1.403-13.836-3.085
			c-2.903-1.093-4.785-0.226-7.005,1.735c-33.002,29.185-66.036,58.308-99.067,87.44C-1.996,203.078-3.651,204.455-5.404,205.953z"
			/>
		<path fill-rule="evenodd" clip-rule="evenodd" fill="#FFFFFF" d="M193.775,87.786c1.684-13.3,1.561-14.123-3.074-20.429
			C198.223,66.65,199.24,79.342,193.775,87.786z"/>
		<path fill-rule="evenodd" clip-rule="evenodd" fill="#FFFFFF" d="M187.818,63.467c1.357-6.384,0.451-11.601-4.631-14.664
			c0.029,0.017,0.66-1.083,0.721-1.178c1.441,0.811,3.422,1.583,4.523,3.146c0.852,1.21,1.475,12.623,0.787,12.646
			C188.752,63.434,188.285,63.45,187.818,63.467z"/>
		<path fill-rule="evenodd" clip-rule="evenodd" d="M141.009,72.312c-0.092,9.357-4.402,12.493-9.57,9.987
			c-9.055-4.392-16.967-11.024-24.624-18.468c-3.517-3.418-2.593-7.224-1.786-11.281c0.824-4.14,2.532-7.557,6.108-8.13
			c1.019-0.164,2.442,0.927,3.254,1.984c6.155,8.017,12.912,14.763,21.055,19.327C137.972,67.145,139.75,70.761,141.009,72.312z"/>
		<path fill-rule="evenodd" clip-rule="evenodd" d="M136.511,92.505c0.21,6.702-5.243,11.432-10.05,8.519
			c-7.705-4.667-15.367-9.457-22.992-14.338c-4.129-2.642-4.702-16.351-0.846-19.459c0.587-0.472,1.63-0.427,2.337-0.129
			c0.918,0.387,1.799,1.136,2.547,1.953c6.715,7.336,14.338,12.361,22.792,15.563C133.245,85.73,136.402,87.313,136.511,92.505z
			 M122.085,93.166c3.324,3.202,5.41,5.212,7.496,7.221c1.577-3.029,3.155-6.059,4.733-9.089c-2.03-1.51-4.046-4.135-6.095-4.177
			C126.59,87.088,124.921,90.21,122.085,93.166z"/>
		<path fill-rule="evenodd" clip-rule="evenodd" d="M126.845,27.326c-4.515,2.064-7.334,5.693-7.003,12.12
			c0.127,2.45,3.104,6.197,6.772,10.021c3.668,3.823,15.082,5.841,15.516,6.286c0.38,0.386,0.907,3.635,0.568,5.502
			c-0.071,0.391-1.652,4.698-3.084,4.046c-5.88-2.672-20.142-17.258-24.375-23.307c-2.855-4.083-0.805-11.959,3.497-14.217
			c2.377-1.247,5.088-1.446,7.649-2.119C126.538,26.215,126.692,26.77,126.845,27.326z"/>
	</g>
</g>
	
	
	
	
</svg>
