<?xml version="1.0" encoding="utf-8"?>
<!-- Generator: Adobe Illustrator 16.0.0, SVG Export Plug-In . SVG Version: 6.00 Build 0)  -->
<!DOCTYPE svg PUBLIC "-//W3C//DTD SVG 1.1//EN" "http://www.w3.org/Graphics/SVG/1.1/DTD/svg11.dtd">
<svg version="1.1" id="Layer_1" xmlns="http://www.w3.org/2000/svg" xmlns:xlink="http://www.w3.org/1999/xlink" x="0px" y="0px"
	 width="300px" height="300px" viewBox="0 0 300 300" enable-background="new 0 0 300 300" xml:space="preserve">
<g id="tKX7A9.tif">
	<g>
		<path fill-rule="evenodd" clip-rule="evenodd" fill="#FFFFFF" d="M97.786,9.295c2.099,0.928,4.402,1.342,6.309,2.767
			c5.568,4.163,6.964,11.475,3.221,17.377c-1.085,1.71-2.385,3.296-3.353,5.068c-2.448,4.482-1.333,7.279,3.492,8.86
			c4.001,1.312,8.183,1.512,12.341,1.554c8.652,0.086,17.307,0.101,25.958-0.024c2.26-0.033,2.885,0.647,2.856,2.878
			c-0.118,9.399-0.06,18.801-0.055,28.202c0.001,3.11,0.234,6.209,1.315,9.146c1.884,5.116,6.243,6.777,11.065,4.177
			c1.58-0.853,2.969-2.067,4.425-3.145c5.024-3.719,11.035-3.259,14.63,1.132c4.417,5.397,4.041,12.941-0.864,17.35
			c-4.088,3.674-10.182,3.129-14.628-1.377c-3.012-3.051-6.465-4.694-10.666-2.958c-4.283,1.769-5.266,5.631-5.281,9.766
			c-0.047,13.46-0.073,26.921,0.072,40.379c0.029,2.711-0.502,3.663-3.464,3.612c-10.679-0.182-21.363-0.021-32.046-0.029
			c-1.689,0-3.723,0.16-4.542-1.627c-0.801-1.754,0.477-3.208,1.69-4.459c5.876-6.059,7.099-14.083,3.109-20.413
			c-4.147-6.577-12.712-9.516-20.573-7.059c-12.04,3.764-15.992,16.285-8.337,26.355c1.198,1.575,3.488,3.214,2.68,5.101
			c-0.958,2.234-3.937,1.914-6.066,1.967c-11.426,0.273-22.856,0.311-34.285,0.48c-1.53,0.021-2.062-0.533-2.059-2.045
			c0.021-13.887-0.051-27.774,0.033-41.66c0.011-1.858,0.305-4.093,2.208-5.05c2.185-1.097,3.875,0.58,5.399,1.861
			c3.354,2.824,6.976,4.964,11.507,4.921c6.578-0.062,12.182-4.674,14.098-11.495c2.052-7.301-0.612-14.865-6.543-18.585
			c-5.629-3.532-12.595-2.925-17.812,1.566c-0.727,0.627-1.349,1.383-2.11,1.962c-1.269,0.965-2.632,2.198-4.324,1.415
			c-1.801-0.835-2.468-2.607-2.472-4.527c-0.024-11.857,0.037-23.716-0.056-35.573c-0.018-2.332,1.275-2.233,2.861-2.229
			c8.973,0.023,17.947,0.002,26.92,0.016c3.34,0.005,6.596-0.501,9.73-1.635c6.41-2.316,7.444-6.571,2.897-11.725
			c-4.198-4.759-4.976-9.568-2.546-14.719c2.042-4.328,5.941-6.071,10.061-7.579C95.649,9.295,96.718,9.295,97.786,9.295z"/>
		<path fill-rule="evenodd" clip-rule="evenodd" fill="#FFFFFF" d="M290.094,98.398c-1.103,0.594-0.923,1.812-1.299,2.745
			c-3.115,7.751-12.072,10.655-19.116,6.147c-1.706-1.091-3.303-2.372-5.072-3.339c-4.393-2.398-7.359-1.204-8.806,3.603
			c-1.083,3.593-1.481,7.33-1.445,11.076c0.103,10.674,0.155,21.35,0.524,32.016c0.107,3.106-0.935,3.635-3.707,3.561
			c-8.437-0.223-16.821-1.494-25.271-1.242c-3.087,0.092-6.206,0.281-9.237,0.826c-6.658,1.199-8.922,6.369-5.433,12.109
			c0.996,1.639,2.162,3.174,3.27,4.742c3.071,4.352,3.218,7.576,0.502,11.459c-2.828,4.047-8.01,6.246-12.255,5.205
			c-8.732-2.141-12.004-12.119-6.126-18.885c2.194-2.525,4.102-5.129,2.755-8.613c-1.488-3.855-4.914-5.395-8.658-5.578
			c-6.715-0.33-13.453-0.217-20.182-0.258c-4.594-0.027-9.188-0.072-13.78,0.025c-1.828,0.041-2.382-0.607-2.377-2.406
			c0.04-13.887-0.023-27.775,0.006-41.663c0.002-1.567-0.029-3.501,1.66-4.228c1.654-0.711,3.04,0.508,4.221,1.624
			c6.287,5.949,14.02,7.266,20.386,3.452c6.483-3.885,9.603-12.305,7.467-20.157c-3.357-12.348-16.381-16.686-26.595-8.895
			c-1.557,1.188-3.09,3.511-5.105,2.617c-2.119-0.939-1.82-3.749-1.85-5.788c-0.159-10.573-0.1-21.148-0.18-31.723
			c-0.013-1.611,0.701-1.987,2.129-1.966c11.001,0.158,22.008-0.326,33,0.32c4.133,0.243,5.058,2.037,3.038,5.685
			c-0.823,1.489-1.834,2.877-2.781,4.298c-6.506,9.759-1.333,21.126,10.333,22.698c9.068,1.22,16.511-2.746,18.414-10.096
			c1.415-5.465,0.288-10.579-3.127-15.128c-0.575-0.766-1.273-1.444-1.798-2.24c-0.831-1.263-1.631-2.652-0.832-4.171
			c0.763-1.452,2.329-1.373,3.696-1.375c11.752-0.015,23.502,0.06,35.253-0.023c2.134-0.015,2.691,0.648,2.668,2.727
			c-0.104,9.293-0.038,18.588-0.05,27.882c-0.004,3.572,0.696,7.013,2.154,10.25c1.989,4.415,5.209,5.325,9.342,2.762
			c0.719-0.445,1.374-1.009,2.009-1.572c7.777-6.89,19.027-3.394,21.564,6.707c0.144,0.571-0.149,1.332,0.69,1.604
			C290.094,96.261,290.094,97.33,290.094,98.398z"/>
		<path fill-rule="evenodd" clip-rule="evenodd" fill="#FFFFFF" d="M202.914,290.705c-0.51-1.109-1.678-0.744-2.515-1.029
			c-8.543-2.902-11.83-12.176-6.903-19.693c1.284-1.959,2.868-3.725,3.735-5.949c1.355-3.484,0.467-5.805-2.996-7.197
			c-3.103-1.246-6.39-1.641-9.724-1.635c-9.079,0.016-18.156-0.029-27.232,0.098c-2.277,0.031-2.938-0.711-2.834-2.939
			c0.424-9.174,0.795-18.354,0.983-27.535c0.069-3.402-0.251-6.836-0.688-10.219c-0.945-7.311-6.468-9.836-12.711-5.906
			c-1.443,0.908-2.8,1.955-4.188,2.949c-4.15,2.975-7.415,3.213-11.219,0.803c-4.029-2.553-6.5-7.832-5.652-12.084
			c1.779-8.934,11.971-12.539,18.888-6.645c2.588,2.205,5.185,4.371,8.863,2.807c3.797-1.619,5.306-5.004,5.442-8.76
			c0.285-7.896,0.177-15.807,0.248-23.711c0.044-4.906-0.582-4.211,4.264-4.23c8.867-0.039,17.734-0.016,26.602-0.01
			c1.068,0.002,2.141-0.014,3.203,0.07c1.919,0.154,4.303,0.158,5.19,1.865c0.816,1.57-1.429,2.588-2.357,3.799
			c-4.333,5.662-4.714,13.719-0.844,19.842c3.716,5.881,11.783,9.221,18.39,7.613c7.427-1.807,13.168-8.045,13.877-15.041
			c0.425-4.197-1.153-7.66-3.606-10.953c-1.424-1.91-4.264-3.941-3.313-6.176c1.08-2.541,4.562-1.568,7.016-1.775
			c8.557-0.719,17.054,0.793,25.596,0.895c6.449,0.076,6.428,0.094,6.535,6.488c0.122,7.266,0.214,14.529,0.477,21.789
			c0.087,2.416-0.558,4.143-2.82,5.158c-2.2,0.988-3.605-0.281-5.071-1.623c-6.918-6.332-15.395-6.467-21.468-0.381
			c-6.012,6.027-6.185,16.658-0.373,23.025c4.939,5.41,12.409,6.445,18.606,2.498c1.704-1.086,3.217-2.469,4.898-3.594
			c3.137-2.102,4.674-1.451,5.805,2.223c0.388,1.262,0.401,2.518,0.407,3.799c0.06,11.109,0.03,22.221,0.249,33.328
			c0.049,2.438-1.015,2.562-2.84,2.555c-9.616-0.041-19.231,0.004-28.847-0.031c-3.374-0.014-6.594,0.59-9.582,2.148
			c-3.82,1.992-4.609,4.689-2.532,8.469c0.458,0.834,1.035,1.617,1.66,2.334c7.188,8.252,3.812,19.141-6.799,21.865
			c-0.492,0.125-1.091,0-1.253,0.697C204.624,290.705,203.769,290.705,202.914,290.705z"/>
		<path fill-rule="evenodd" clip-rule="evenodd" fill="#FFFFFF" d="M129.066,255.262c-5.128,0-10.256,0.006-15.384-0.004
			c-0.959-0.002-1.949,0.07-2.874-0.129c-2.187-0.469-4.73-0.805-5.542-3.215c-0.739-2.195,1.154-3.709,2.48-5.193
			c6.482-7.258,6.364-16.432-0.324-22.158c-6.89-5.9-18.214-4.969-23.927,1.971c-4.093,4.973-4.307,11.912-0.525,17.576
			c0.473,0.707,1.007,1.377,1.523,2.057c1.331,1.752,3.49,3.449,2.618,5.807c-0.936,2.529-3.79,2.564-6.064,2.785
			c-11.293,1.09-22.625,0.23-33.938,0.521c-2.279,0.057-1.912-1.453-1.913-2.803c-0.008-9.4-0.01-18.803-0.003-28.205
			c0.002-3.32-0.195-6.625-1.193-9.812c-1.486-4.742-4.456-6-8.889-3.688c-1.788,0.934-3.397,2.207-5.089,3.324
			c-5.785,3.82-13.036,2.748-17.237-2.549c-4.165-5.254-3.774-12.783,0.913-17.551c4.747-4.832,12.141-5.213,17.429-0.771
			c2.829,2.375,5.68,5.154,9.615,3.352c3.964-1.818,4.242-6.029,4.336-9.711c0.203-7.896,0.138-15.814-0.177-23.709
			c-0.104-2.621,0.727-3.057,2.982-3.061c10.576-0.02,21.153-0.164,31.729-0.254c2.904-0.027,5.771-0.377,8.479-1.42
			c4.974-1.92,6.554-6.18,3.971-10.877c-1.021-1.855-2.489-3.458-3.677-5.23c-2.659-3.964-2.855-8.433-0.116-11.978
			c3.116-4.029,7.454-5.776,12.478-4.79c4.481,0.879,7.858,3.448,8.859,8.176c0.783,3.701-0.379,6.978-3.061,9.638
			c-1.222,1.212-2.387,2.439-3.155,3.997c-2.512,5.09-0.229,10.311,5.21,11.909c1.76,0.518,3.556,0.617,5.385,0.611
			c10.576-0.035,21.154,0.033,31.729-0.084c2.255-0.025,2.917,0.639,2.875,2.883c-0.133,7.156-0.051,14.314-0.057,21.473
			c0,0.533,0.001,1.072-0.054,1.602c-0.201,1.902-0.12,4.307-1.912,5.135c-1.494,0.689-2.619-1.42-3.83-2.379
			c-7.117-5.641-18.426-4.314-23.833,2.826c-6.286,8.303-4.69,19.559,3.617,25.508c5.862,4.199,11.829,4.256,17.816,0.154
			c1.586-1.086,3.102-2.277,4.718-3.312c2.55-1.639,3.547-1.189,3.939,1.896c0.689,5.416,0.771,10.859,0.503,16.311
			c-0.334,6.824-0.737,13.648-0.897,20.477c-0.051,2.174-0.573,3.002-2.868,2.943C140.18,255.164,134.623,255.262,129.066,255.262z"
			/>
	</g>
</g>
</svg>
